<svg width="239" height="205" viewBox="0 0 239 205" fill="none" xmlns="http://www.w3.org/2000/svg">
<g clip-path="url(#clip0_1_2)">
<rect width="239" height="205" fill="white"/>
<path d="M31.6464 187.646C31.4512 187.842 31.4512 188.158 31.6464 188.354L34.8284 191.536C35.0237 191.731 35.3403 191.731 35.5355 191.536C35.7308 191.34 35.7308 191.024 35.5355 190.828L32.7071 188L35.5355 185.172C35.7308 184.976 35.7308 184.66 35.5355 184.464C35.3403 184.269 35.0237 184.269 34.8284 184.464L31.6464 187.646ZM183.354 188.354C183.549 188.158 183.549 187.842 183.354 187.646L180.172 184.464C179.976 184.269 179.66 184.269 179.464 184.464C179.269 184.66 179.269 184.976 179.464 185.172L182.293 188L179.464 190.828C179.269 191.024 179.269 191.34 179.464 191.536C179.66 191.731 179.976 191.731 180.172 191.536L183.354 188.354ZM32 188.5H183V187.5H32V188.5Z" fill="black"/>
<path d="M182.646 187.646C182.451 187.842 182.451 188.158 182.646 188.354L185.828 191.536C186.024 191.731 186.34 191.731 186.536 191.536C186.731 191.34 186.731 191.024 186.536 190.828L183.707 188L186.536 185.172C186.731 184.976 186.731 184.66 186.536 184.464C186.34 184.269 186.024 184.269 185.828 184.464L182.646 187.646ZM232.354 188.354C232.549 188.158 232.549 187.842 232.354 187.646L229.172 184.464C228.976 184.269 228.66 184.269 228.464 184.464C228.269 184.66 228.269 184.976 228.464 185.172L231.293 188L228.464 190.828C228.269 191.024 228.269 191.34 228.464 191.536C228.66 191.731 228.976 191.731 229.172 191.536L232.354 188.354ZM183 188.5H232V187.5H183V188.5Z" fill="black"/>
<path d="M12.3536 51.6464C12.1583 51.4512 11.8417 51.4512 11.6464 51.6464L8.46447 54.8284C8.2692 55.0237 8.2692 55.3403 8.46447 55.5355C8.65973 55.7308 8.97631 55.7308 9.17157 55.5355L12 52.7071L14.8284 55.5355C15.0237 55.7308 15.3403 55.7308 15.5355 55.5355C15.7308 55.3403 15.7308 55.0237 15.5355 54.8284L12.3536 51.6464ZM11.6465 168.354C11.8417 168.549 12.1583 168.549 12.3536 168.354L15.5355 165.172C15.7308 164.976 15.7308 164.66 15.5355 164.464C15.3403 164.269 15.0237 164.269 14.8284 164.464L12 167.293L9.17158 164.464C8.97632 164.269 8.65973 164.269 8.46447 164.464C8.26921 164.66 8.26921 164.976 8.46447 165.172L11.6465 168.354ZM11.5 52L11.5 168L12.5 168L12.5 52L11.5 52Z" fill="black"/>
<path d="M12.3536 7.64645C12.1583 7.45118 11.8417 7.45118 11.6464 7.64645L8.46447 10.8284C8.2692 11.0237 8.2692 11.3403 8.46447 11.5355C8.65973 11.7308 8.97631 11.7308 9.17157 11.5355L12 8.70711L14.8284 11.5355C15.0237 11.7308 15.3403 11.7308 15.5355 11.5355C15.7308 11.3403 15.7308 11.0237 15.5355 10.8284L12.3536 7.64645ZM11.6464 52.3536C11.8417 52.5488 12.1583 52.5488 12.3536 52.3536L15.5355 49.1716C15.7308 48.9763 15.7308 48.6597 15.5355 48.4645C15.3403 48.2692 15.0237 48.2692 14.8284 48.4645L12 51.2929L9.17157 48.4645C8.97631 48.2692 8.65973 48.2692 8.46447 48.4645C8.26921 48.6597 8.26921 48.9763 8.46447 49.1716L11.6464 52.3536ZM11.5 8L11.5 52L12.5 52L12.5 8L11.5 8Z" fill="black"/>
<line x1="182.5" y1="168" x2="182.5" y2="124" stroke="black"/>
<line x1="231.5" y1="168" x2="231.5" y2="8" stroke="black"/>
<line x1="183" y1="123.5" x2="232" y2="123.5" stroke="black"/>
<line x1="32" y1="167.5" x2="232" y2="167.5" stroke="black"/>
<line x1="81.5" y1="8" x2="81.5" y2="52" stroke="black"/>
<line x1="32.5" y1="8" x2="32.5" y2="168" stroke="black"/>
<line x1="81" y1="52.5" x2="32" y2="52.5" stroke="black"/>
<line x1="232" y1="8.5" x2="32" y2="8.50002" stroke="black"/>
<path d="M31.5804 166.08C30.785 166.312 30.3281 167.144 30.5599 167.94C30.7917 168.735 31.6243 169.192 32.4196 168.96L31.5804 166.08ZM184.315 124.242C184.714 123.515 184.448 122.603 183.722 122.205L171.886 115.711C171.16 115.312 170.248 115.578 169.85 116.304C169.451 117.03 169.717 117.942 170.443 118.341L180.963 124.113L175.191 134.634C174.792 135.36 175.058 136.272 175.784 136.67C176.51 137.069 177.422 136.803 177.821 136.077L184.315 124.242ZM32.4196 168.96L183.42 124.96L182.58 122.08L31.5804 166.08L32.4196 168.96Z" fill="#EC1313"/>
<path d="M80.7202 50.5599C79.9249 50.7917 79.468 51.6243 79.6998 52.4196C79.9315 53.215 80.7642 53.6719 81.5595 53.4401L80.7202 50.5599ZM233.455 8.72159C233.853 7.99531 233.588 7.08349 232.861 6.68497L221.026 0.190717C220.3 -0.207802 219.388 0.0578952 218.99 0.784169C218.591 1.51044 218.857 2.42227 219.583 2.82079L230.103 8.59346L224.331 19.1137C223.932 19.84 224.198 20.7518 224.924 21.1504C225.65 21.5489 226.562 21.2832 226.961 20.5569L233.455 8.72159ZM81.5595 53.4401L232.56 9.44011L231.72 6.5599L80.7202 50.5599L81.5595 53.4401Z" fill="#EC1313"/>
<path d="M30.6197 166.933C30.2954 167.695 30.6505 168.576 31.4128 168.9C32.1752 169.225 33.056 168.869 33.3803 168.107L30.6197 166.933ZM82.5311 51.4392C82.2213 50.6708 81.3474 50.2991 80.579 50.6088L68.0582 55.6564C67.2898 55.9661 66.9181 56.8401 67.2278 57.6084C67.5376 58.3768 68.4115 58.7485 69.1799 58.4388L80.3095 53.9521L84.7963 65.0817C85.106 65.85 85.98 66.2218 86.7483 65.9121C87.5167 65.6023 87.8884 64.7284 87.5787 63.96L82.5311 51.4392ZM33.3803 168.107L82.5202 52.5872L79.7596 51.4129L30.6197 166.933L33.3803 168.107Z" fill="#1942E6"/>
<path d="M181.62 122.933C181.295 123.695 181.651 124.576 182.413 124.9C183.175 125.225 184.056 124.869 184.38 124.107L181.62 122.933ZM233.531 7.43916C233.221 6.67082 232.347 6.29905 231.579 6.6088L219.058 11.6564C218.29 11.9661 217.918 12.8401 218.228 13.6084C218.538 14.3768 219.412 14.7485 220.18 14.4388L231.31 9.95206L235.796 21.0817C236.106 21.85 236.98 22.2218 237.748 21.9121C238.517 21.6023 238.888 20.7284 238.579 19.96L233.531 7.43916ZM184.38 124.107L233.52 8.58716L230.76 7.41285L181.62 122.933L184.38 124.107Z" fill="#1942E6"/>
<path d="M107.48 194.826L107.76 194.812H107.774C107.979 194.821 108.161 194.868 108.32 194.952C108.479 195.027 108.619 195.129 108.74 195.26L108.852 195.372L108.936 195.302C109.16 195.087 109.403 195.031 109.664 195.134C109.795 195.181 109.883 195.26 109.93 195.372C109.967 195.475 109.958 195.657 109.902 195.918C109.855 196.123 109.711 196.702 109.468 197.654C109.132 199.017 108.959 199.726 108.95 199.782C108.913 200.043 108.908 200.225 108.936 200.328C108.955 200.375 108.983 200.412 109.02 200.44C109.048 200.468 109.09 200.482 109.146 200.482C109.211 200.482 109.263 200.473 109.3 200.454C109.477 200.323 109.659 199.899 109.846 199.18C109.893 199.003 109.93 198.905 109.958 198.886C109.977 198.867 110.089 198.858 110.294 198.858C110.499 198.858 110.616 198.867 110.644 198.886C110.663 198.905 110.672 198.942 110.672 198.998C110.672 199.054 110.649 199.166 110.602 199.334C110.257 200.51 109.767 201.117 109.132 201.154C108.656 201.182 108.273 201.019 107.984 200.664C107.937 200.608 107.895 200.547 107.858 200.482C107.839 200.426 107.825 200.398 107.816 200.398L107.718 200.482C107.391 200.771 107.069 200.963 106.752 201.056C106.145 201.261 105.599 201.168 105.114 200.776C105.058 200.729 105.007 200.678 104.96 200.622C104.82 200.482 104.703 200.314 104.61 200.118C104.33 199.549 104.274 198.881 104.442 198.116C104.657 197.099 105.142 196.259 105.898 195.596C106.402 195.157 106.929 194.901 107.48 194.826ZM107.774 195.484C107.391 195.419 107.023 195.601 106.668 196.03C106.575 196.151 106.491 196.282 106.416 196.422C106.276 196.693 106.108 197.225 105.912 198.018C105.791 198.466 105.702 198.858 105.646 199.194C105.609 199.511 105.609 199.754 105.646 199.922C105.739 200.249 105.921 200.435 106.192 200.482C106.351 200.51 106.542 200.477 106.766 200.384C107.102 200.197 107.419 199.885 107.718 199.446L107.788 199.348L108.138 197.962L108.488 196.562L108.46 196.45C108.376 195.918 108.166 195.601 107.83 195.498C107.811 195.489 107.793 195.484 107.774 195.484Z" fill="black"/>
<path d="M6.762 104.368C7.49 104.312 7.84933 104.284 7.84 104.284C7.924 104.284 7.98 104.317 8.008 104.382C8.01733 104.419 7.68133 105.81 7 108.554L5.936 112.81C5.91733 113.025 5.91733 113.197 5.936 113.328C5.95467 113.375 5.98267 113.412 6.02 113.44C6.048 113.468 6.09 113.482 6.146 113.482C6.21133 113.482 6.26267 113.473 6.3 113.454C6.47733 113.323 6.65933 112.899 6.846 112.18C6.89267 112.003 6.93 111.905 6.958 111.886C6.97667 111.867 7.08867 111.858 7.294 111.858C7.49933 111.858 7.616 111.867 7.644 111.886C7.66267 111.905 7.672 111.942 7.672 111.998C7.672 112.054 7.64867 112.166 7.602 112.334C7.25667 113.51 6.76667 114.117 6.132 114.154C5.656 114.182 5.27333 114.019 4.984 113.664C4.93733 113.608 4.89533 113.547 4.858 113.482C4.83933 113.426 4.82533 113.398 4.816 113.398L4.718 113.482C4.39133 113.771 4.06933 113.963 3.752 114.056C3.14533 114.261 2.59933 114.168 2.114 113.776C2.058 113.729 2.00667 113.678 1.96 113.622C1.82 113.482 1.70333 113.314 1.61 113.118C1.37667 112.642 1.302 112.077 1.386 111.424C1.53533 110.36 1.988 109.464 2.744 108.736C3.22933 108.269 3.75667 107.975 4.326 107.854C4.41 107.835 4.54067 107.826 4.718 107.826C4.95133 107.826 5.152 107.863 5.32 107.938C5.45067 108.003 5.572 108.092 5.684 108.204C5.75867 108.279 5.796 108.307 5.796 108.288C5.80533 108.279 5.922 107.831 6.146 106.944C6.36067 106.076 6.47267 105.591 6.482 105.488C6.482 105.404 6.47267 105.353 6.454 105.334C6.38867 105.269 6.188 105.231 5.852 105.222C5.628 105.222 5.49733 105.189 5.46 105.124L5.446 105.082L5.516 104.802C5.55333 104.625 5.59067 104.517 5.628 104.48C5.656 104.452 5.684 104.438 5.712 104.438L6.762 104.368ZM4.774 108.484C4.39133 108.419 4.02267 108.601 3.668 109.03C3.57467 109.151 3.49067 109.282 3.416 109.422C3.276 109.693 3.108 110.225 2.912 111.018C2.79067 111.466 2.702 111.858 2.646 112.194C2.60867 112.511 2.60867 112.754 2.646 112.922C2.73933 113.249 2.92133 113.435 3.192 113.482C3.35067 113.51 3.542 113.477 3.766 113.384C4.102 113.197 4.41933 112.885 4.718 112.446L4.788 112.348L5.138 110.948L5.488 109.548L5.46 109.45C5.376 108.918 5.17067 108.601 4.844 108.498C4.82533 108.489 4.802 108.484 4.774 108.484Z" fill="black"/>
<path d="M4.192 24.368C4.92 24.312 5.27933 24.284 5.27 24.284C5.354 24.284 5.41 24.3167 5.438 24.382C5.44733 24.4193 5.29333 25.0727 4.976 26.342L4.5 28.26L4.64 28.176C5.05067 27.924 5.44267 27.8027 5.816 27.812C6.41333 27.84 6.87067 28.0967 7.188 28.582C7.33733 28.806 7.454 29.072 7.538 29.38C7.63133 29.856 7.622 30.3413 7.51 30.836C7.37 31.564 7.06667 32.2173 6.6 32.796C6.404 33.048 6.19867 33.258 5.984 33.426C5.57333 33.7713 5.12067 34 4.626 34.112C4.542 34.1307 4.41133 34.14 4.234 34.14C4.05667 34.14 3.92133 34.1307 3.828 34.112C3.632 34.0653 3.44067 33.9767 3.254 33.846C3.02067 33.678 2.84333 33.468 2.722 33.216C2.59133 32.9453 2.50267 32.6513 2.456 32.334C2.428 32.082 2.43267 31.7787 2.47 31.424C2.48867 31.284 2.74067 30.2433 3.226 28.302C3.702 26.398 3.92133 25.4087 3.884 25.334C3.81867 25.2687 3.618 25.2313 3.282 25.222C3.058 25.222 2.92733 25.1893 2.89 25.124L2.876 25.082L2.946 24.802C2.98333 24.6247 3.02067 24.5173 3.058 24.48C3.086 24.452 3.114 24.438 3.142 24.438L4.192 24.368ZM5.858 28.512C5.774 28.4747 5.63867 28.4653 5.452 28.484C5.18133 28.5587 4.906 28.7407 4.626 29.03C4.47667 29.1793 4.33667 29.3567 4.206 29.562C4.18733 29.5807 4.09867 29.884 3.94 30.472L3.674 31.55C3.48733 32.4273 3.53867 33.006 3.828 33.286C3.912 33.3793 4.01467 33.44 4.136 33.468C4.43467 33.552 4.74733 33.4447 5.074 33.146C5.37267 32.894 5.61533 32.4553 5.802 31.83C5.86733 31.6153 5.942 31.34 6.026 31.004C6.222 30.2107 6.32 29.6647 6.32 29.366C6.32 29.17 6.29667 29.016 6.25 28.904C6.18467 28.7173 6.054 28.5867 5.858 28.512Z" fill="black"/>
<path d="M208.844 194.826C209.068 194.798 209.287 194.807 209.502 194.854C210.062 194.966 210.407 195.26 210.538 195.736C210.594 195.913 210.594 196.1 210.538 196.296C210.473 196.585 210.319 196.795 210.076 196.926C209.731 197.103 209.441 197.089 209.208 196.884C209.115 196.8 209.059 196.688 209.04 196.548C208.993 196.296 209.087 196.049 209.32 195.806C209.367 195.75 209.418 195.708 209.474 195.68L209.558 195.638L209.502 195.596C209.287 195.465 208.998 195.437 208.634 195.512C208.27 195.624 207.948 195.839 207.668 196.156C207.397 196.483 207.164 197.029 206.968 197.794C206.949 197.859 206.931 197.925 206.912 197.99C206.763 198.606 206.688 199.063 206.688 199.362C206.688 199.558 206.697 199.689 206.716 199.754C206.8 200.127 207.024 200.361 207.388 200.454C207.668 200.529 208.041 200.496 208.508 200.356C208.975 200.197 209.399 199.927 209.782 199.544C209.95 199.376 210.067 199.301 210.132 199.32L210.328 199.516C210.459 199.665 210.51 199.773 210.482 199.838C210.435 199.922 210.277 200.09 210.006 200.342C209.465 200.762 208.83 201.023 208.102 201.126C207.775 201.163 207.514 201.168 207.318 201.14C206.497 201.037 205.923 200.631 205.596 199.922C205.54 199.801 205.493 199.67 205.456 199.53C205.269 198.821 205.358 198.06 205.722 197.248C205.946 196.763 206.245 196.333 206.618 195.96C206.973 195.605 207.341 195.339 207.724 195.162C208.097 194.975 208.471 194.863 208.844 194.826Z" fill="black"/>
<path d="M203.192 140.368C203.92 140.312 204.279 140.284 204.27 140.284C204.354 140.284 204.41 140.317 204.438 140.382C204.447 140.419 204.293 141.073 203.976 142.342L203.5 144.26L203.64 144.176C204.051 143.924 204.443 143.803 204.816 143.812C205.413 143.84 205.871 144.097 206.188 144.582C206.337 144.806 206.454 145.072 206.538 145.38C206.631 145.856 206.622 146.341 206.51 146.836C206.37 147.564 206.067 148.217 205.6 148.796C205.404 149.048 205.199 149.258 204.984 149.426C204.573 149.771 204.121 150 203.626 150.112C203.542 150.131 203.411 150.14 203.234 150.14C203.057 150.14 202.921 150.131 202.828 150.112C202.632 150.065 202.441 149.977 202.254 149.846C202.021 149.678 201.843 149.468 201.722 149.216C201.591 148.945 201.503 148.651 201.456 148.334C201.428 148.082 201.433 147.779 201.47 147.424C201.489 147.284 201.741 146.243 202.226 144.302C202.702 142.398 202.921 141.409 202.884 141.334C202.819 141.269 202.618 141.231 202.282 141.222C202.058 141.222 201.927 141.189 201.89 141.124L201.876 141.082L201.946 140.802C201.983 140.625 202.021 140.517 202.058 140.48C202.086 140.452 202.114 140.438 202.142 140.438L203.192 140.368ZM204.858 144.512C204.774 144.475 204.639 144.465 204.452 144.484C204.181 144.559 203.906 144.741 203.626 145.03C203.477 145.179 203.337 145.357 203.206 145.562C203.187 145.581 203.099 145.884 202.94 146.472L202.674 147.55C202.487 148.427 202.539 149.006 202.828 149.286C202.912 149.379 203.015 149.44 203.136 149.468C203.435 149.552 203.747 149.445 204.074 149.146C204.373 148.894 204.615 148.455 204.802 147.83C204.867 147.615 204.942 147.34 205.026 147.004C205.222 146.211 205.32 145.665 205.32 145.366C205.32 145.17 205.297 145.016 205.25 144.904C205.185 144.717 205.054 144.587 204.858 144.512ZM211.283 143.826C211.507 143.798 211.727 143.807 211.941 143.854C212.501 143.966 212.847 144.26 212.977 144.736C213.033 144.913 213.033 145.1 212.977 145.296C212.912 145.585 212.758 145.795 212.515 145.926C212.17 146.103 211.881 146.089 211.647 145.884C211.554 145.8 211.498 145.688 211.479 145.548C211.433 145.296 211.526 145.049 211.759 144.806C211.806 144.75 211.857 144.708 211.913 144.68L211.997 144.638L211.941 144.596C211.727 144.465 211.437 144.437 211.073 144.512C210.709 144.624 210.387 144.839 210.107 145.156C209.837 145.483 209.603 146.029 209.407 146.794C209.389 146.859 209.37 146.925 209.351 146.99C209.202 147.606 209.127 148.063 209.127 148.362C209.127 148.558 209.137 148.689 209.155 148.754C209.239 149.127 209.463 149.361 209.827 149.454C210.107 149.529 210.481 149.496 210.947 149.356C211.414 149.197 211.839 148.927 212.221 148.544C212.389 148.376 212.506 148.301 212.571 148.32L212.767 148.516C212.898 148.665 212.949 148.773 212.921 148.838C212.875 148.922 212.716 149.09 212.445 149.342C211.904 149.762 211.269 150.023 210.541 150.126C210.215 150.163 209.953 150.168 209.757 150.14C208.936 150.037 208.362 149.631 208.035 148.922C207.979 148.801 207.933 148.67 207.895 148.53C207.709 147.821 207.797 147.06 208.161 146.248C208.385 145.763 208.684 145.333 209.057 144.96C209.412 144.605 209.781 144.339 210.163 144.162C210.537 143.975 210.91 143.863 211.283 143.826Z" fill="black"/>
<path d="M53.192 22.368C53.92 22.312 54.2793 22.284 54.27 22.284C54.354 22.284 54.41 22.3167 54.438 22.382C54.4473 22.4193 54.2933 23.0727 53.976 24.342L53.5 26.26L53.64 26.176C54.0507 25.924 54.4427 25.8027 54.816 25.812C55.4133 25.84 55.8707 26.0967 56.188 26.582C56.3373 26.806 56.454 27.072 56.538 27.38C56.6313 27.856 56.622 28.3413 56.51 28.836C56.37 29.564 56.0667 30.2173 55.6 30.796C55.404 31.048 55.1987 31.258 54.984 31.426C54.5733 31.7713 54.1207 32 53.626 32.112C53.542 32.1307 53.4113 32.14 53.234 32.14C53.0567 32.14 52.9213 32.1307 52.828 32.112C52.632 32.0653 52.4407 31.9767 52.254 31.846C52.0207 31.678 51.8433 31.468 51.722 31.216C51.5913 30.9453 51.5027 30.6513 51.456 30.334C51.428 30.082 51.4327 29.7787 51.47 29.424C51.4887 29.284 51.7407 28.2433 52.226 26.302C52.702 24.398 52.9213 23.4087 52.884 23.334C52.8187 23.2687 52.618 23.2313 52.282 23.222C52.058 23.222 51.9273 23.1893 51.89 23.124L51.876 23.082L51.946 22.802C51.9833 22.6247 52.0207 22.5173 52.058 22.48C52.086 22.452 52.114 22.438 52.142 22.438L53.192 22.368ZM54.858 26.512C54.774 26.4747 54.6387 26.4653 54.452 26.484C54.1813 26.5587 53.906 26.7407 53.626 27.03C53.4767 27.1793 53.3367 27.3567 53.206 27.562C53.1873 27.5807 53.0987 27.884 52.94 28.472L52.674 29.55C52.4873 30.4273 52.5387 31.006 52.828 31.286C52.912 31.3793 53.0147 31.44 53.136 31.468C53.4347 31.552 53.7473 31.4447 54.074 31.146C54.3727 30.894 54.6153 30.4553 54.802 29.83C54.8673 29.6153 54.942 29.34 55.026 29.004C55.222 28.2107 55.32 27.6647 55.32 27.366C55.32 27.17 55.2967 27.016 55.25 26.904C55.1847 26.7173 55.054 26.5867 54.858 26.512ZM61.2835 25.826C61.5075 25.798 61.7268 25.8073 61.9415 25.854C62.5015 25.966 62.8468 26.26 62.9775 26.736C63.0335 26.9133 63.0335 27.1 62.9775 27.296C62.9121 27.5853 62.7581 27.7953 62.5155 27.926C62.1701 28.1033 61.8808 28.0893 61.6475 27.884C61.5541 27.8 61.4981 27.688 61.4795 27.548C61.4328 27.296 61.5261 27.0487 61.7595 26.806C61.8061 26.75 61.8575 26.708 61.9135 26.68L61.9975 26.638L61.9415 26.596C61.7268 26.4653 61.4375 26.4373 61.0735 26.512C60.7095 26.624 60.3875 26.8387 60.1075 27.156C59.8368 27.4827 59.6035 28.0287 59.4075 28.794C59.3888 28.8593 59.3701 28.9247 59.3515 28.99C59.2021 29.606 59.1275 30.0633 59.1275 30.362C59.1275 30.558 59.1368 30.6887 59.1555 30.754C59.2395 31.1273 59.4635 31.3607 59.8275 31.454C60.1075 31.5287 60.4808 31.496 60.9475 31.356C61.4141 31.1973 61.8388 30.9267 62.2215 30.544C62.3895 30.376 62.5061 30.3013 62.5715 30.32L62.7675 30.516C62.8981 30.6653 62.9495 30.7727 62.9215 30.838C62.8748 30.922 62.7161 31.09 62.4455 31.342C61.9041 31.762 61.2695 32.0233 60.5415 32.126C60.2148 32.1633 59.9535 32.168 59.7575 32.14C58.9361 32.0373 58.3621 31.6313 58.0355 30.922C57.9795 30.8007 57.9328 30.67 57.8955 30.53C57.7088 29.8207 57.7975 29.06 58.1615 28.248C58.3855 27.7627 58.6841 27.3333 59.0575 26.96C59.4121 26.6053 59.7808 26.3393 60.1635 26.162C60.5368 25.9753 60.9101 25.8633 61.2835 25.826Z" fill="black"/>
<path d="M42.762 64.368C43.49 64.312 43.8493 64.284 43.84 64.284C43.924 64.284 43.98 64.3167 44.008 64.382C44.0173 64.4193 43.6813 65.81 43 68.554L41.936 72.81C41.9173 73.0247 41.9173 73.1973 41.936 73.328C41.9547 73.3747 41.9827 73.412 42.02 73.44C42.048 73.468 42.09 73.482 42.146 73.482C42.2113 73.482 42.2627 73.4727 42.3 73.454C42.4773 73.3233 42.6593 72.8987 42.846 72.18C42.8927 72.0027 42.93 71.9047 42.958 71.886C42.9767 71.8673 43.0887 71.858 43.294 71.858C43.4993 71.858 43.616 71.8673 43.644 71.886C43.6627 71.9047 43.672 71.942 43.672 71.998C43.672 72.054 43.6487 72.166 43.602 72.334C43.2567 73.51 42.7667 74.1167 42.132 74.154C41.656 74.182 41.2733 74.0187 40.984 73.664C40.9373 73.608 40.8953 73.5473 40.858 73.482C40.8393 73.426 40.8253 73.398 40.816 73.398L40.718 73.482C40.3913 73.7713 40.0693 73.9627 39.752 74.056C39.1453 74.2613 38.5993 74.168 38.114 73.776C38.058 73.7293 38.0067 73.678 37.96 73.622C37.82 73.482 37.7033 73.314 37.61 73.118C37.3767 72.642 37.302 72.0773 37.386 71.424C37.5353 70.36 37.988 69.464 38.744 68.736C39.2293 68.2693 39.7567 67.9753 40.326 67.854C40.41 67.8353 40.5407 67.826 40.718 67.826C40.9513 67.826 41.152 67.8633 41.32 67.938C41.4507 68.0033 41.572 68.092 41.684 68.204C41.7587 68.2787 41.796 68.3067 41.796 68.288C41.8053 68.2787 41.922 67.8307 42.146 66.944C42.3607 66.076 42.4727 65.5907 42.482 65.488C42.482 65.404 42.4727 65.3527 42.454 65.334C42.3887 65.2687 42.188 65.2313 41.852 65.222C41.628 65.222 41.4973 65.1893 41.46 65.124L41.446 65.082L41.516 64.802C41.5533 64.6247 41.5907 64.5173 41.628 64.48C41.656 64.452 41.684 64.438 41.712 64.438L42.762 64.368ZM40.774 68.484C40.3913 68.4187 40.0227 68.6007 39.668 69.03C39.5747 69.1513 39.4907 69.282 39.416 69.422C39.276 69.6927 39.108 70.2247 38.912 71.018C38.7907 71.466 38.702 71.858 38.646 72.194C38.6087 72.5113 38.6087 72.754 38.646 72.922C38.7393 73.2487 38.9213 73.4353 39.192 73.482C39.3507 73.51 39.542 73.4773 39.766 73.384C40.102 73.1973 40.4193 72.8847 40.718 72.446L40.788 72.348L41.138 70.948L41.488 69.548L41.46 69.45C41.376 68.918 41.1707 68.6007 40.844 68.498C40.8253 68.4887 40.802 68.484 40.774 68.484ZM47.9944 67.826C48.2184 67.798 48.4377 67.8073 48.6524 67.854C49.2124 67.966 49.5577 68.26 49.6884 68.736C49.7444 68.9133 49.7444 69.1 49.6884 69.296C49.6231 69.5853 49.4691 69.7953 49.2264 69.926C48.8811 70.1033 48.5917 70.0893 48.3584 69.884C48.2651 69.8 48.2091 69.688 48.1904 69.548C48.1437 69.296 48.2371 69.0487 48.4704 68.806C48.5171 68.75 48.5684 68.708 48.6244 68.68L48.7084 68.638L48.6524 68.596C48.4377 68.4653 48.1484 68.4373 47.7844 68.512C47.4204 68.624 47.0984 68.8387 46.8184 69.156C46.5477 69.4827 46.3144 70.0287 46.1184 70.794C46.0997 70.8593 46.0811 70.9247 46.0624 70.99C45.9131 71.606 45.8384 72.0633 45.8384 72.362C45.8384 72.558 45.8477 72.6887 45.8664 72.754C45.9504 73.1273 46.1744 73.3607 46.5384 73.454C46.8184 73.5287 47.1917 73.496 47.6584 73.356C48.1251 73.1973 48.5497 72.9267 48.9324 72.544C49.1004 72.376 49.2171 72.3013 49.2824 72.32L49.4784 72.516C49.6091 72.6653 49.6604 72.7727 49.6324 72.838C49.5857 72.922 49.4271 73.09 49.1564 73.342C48.6151 73.762 47.9804 74.0233 47.2524 74.126C46.9257 74.1633 46.6644 74.168 46.4684 74.14C45.6471 74.0373 45.0731 73.6313 44.7464 72.922C44.6904 72.8007 44.6437 72.67 44.6064 72.53C44.4197 71.8207 44.5084 71.06 44.8724 70.248C45.0964 69.7627 45.3951 69.3333 45.7684 68.96C46.1231 68.6053 46.4917 68.3393 46.8744 68.162C47.2477 67.9753 47.6211 67.8633 47.9944 67.826ZM57.8218 63.528C57.9712 63.4627 58.0925 63.5 58.1858 63.64C58.1952 63.6587 58.2045 63.682 58.2138 63.71C58.2232 63.7567 58.2232 63.7987 58.2138 63.836L50.3598 77.388C50.3038 77.4627 50.2338 77.5 50.1498 77.5C50.0565 77.5 49.9865 77.4673 49.9398 77.402C49.8745 77.3553 49.8512 77.276 49.8698 77.164L57.7238 63.612C57.7425 63.584 57.7752 63.556 57.8218 63.528ZM61.9482 64.69L62.3122 64.676H62.3262C62.6436 64.6853 62.9422 64.7553 63.2222 64.886C63.6329 65.0913 63.9456 65.404 64.1602 65.824C64.3469 66.188 64.4402 66.6033 64.4402 67.07C64.4402 67.3127 64.4169 67.546 64.3702 67.77C64.2769 68.2367 64.0669 68.6753 63.7402 69.086C63.6376 69.226 63.4182 69.45 63.0822 69.758C62.6716 70.0847 62.1302 70.4533 61.4582 70.864C61.2342 70.9853 61.0336 71.1067 60.8562 71.228C60.3149 71.5453 59.8249 71.97 59.3862 72.502C59.3956 72.5767 59.4142 72.6187 59.4422 72.628C59.6196 72.628 60.0022 72.684 60.5902 72.796C61.3742 72.9453 61.8876 73.0013 62.1302 72.964C62.5502 72.8987 62.8956 72.628 63.1662 72.152C63.2316 72.0307 63.2876 71.9093 63.3342 71.788C63.3716 71.6667 63.4136 71.6013 63.4602 71.592C63.4882 71.5827 63.5862 71.578 63.7542 71.578H64.0622L64.1042 71.62C64.1322 71.648 64.1462 71.6807 64.1462 71.718C64.1276 71.8207 64.0622 72.0167 63.9502 72.306C63.5582 73.2953 63.0076 73.9253 62.2982 74.196C62.2142 74.224 62.1349 74.2473 62.0602 74.266C61.9856 74.2847 61.8642 74.294 61.6962 74.294C61.5282 74.294 61.4022 74.2847 61.3182 74.266C61.0569 74.2007 60.7442 74.0467 60.3802 73.804C59.9042 73.496 59.5262 73.3233 59.2462 73.286C59.0596 73.258 58.9102 73.3187 58.7982 73.468C58.7329 73.5613 58.6536 73.7573 58.5602 74.056C58.5136 74.2053 58.4669 74.2847 58.4202 74.294C58.3829 74.3033 58.2802 74.308 58.1122 74.308H57.8182L57.7762 74.266C57.7389 74.2193 57.7436 74.1213 57.7902 73.972C58.1262 72.796 58.8356 71.802 59.9182 70.99C60.1142 70.8407 60.3149 70.7053 60.5202 70.584C61.5842 69.9493 62.3076 69.24 62.6902 68.456C62.8022 68.2227 62.9142 67.8447 63.0262 67.322C63.0916 67.0047 63.1242 66.72 63.1242 66.468C63.1242 66.2067 63.0869 65.9967 63.0122 65.838C62.8909 65.5953 62.6949 65.4367 62.4242 65.362C62.2842 65.3247 62.1022 65.3247 61.8782 65.362C61.6822 65.4087 61.5329 65.46 61.4302 65.516C61.0196 65.712 60.6602 66.0527 60.3522 66.538C60.2216 66.7247 60.0769 67 59.9182 67.364C59.6289 68.0733 59.5776 68.4933 59.7642 68.624C59.8202 68.6613 59.9182 68.652 60.0582 68.596C60.3662 68.4933 60.6182 68.19 60.8142 67.686C60.8236 67.658 60.8329 67.6347 60.8422 67.616C60.9822 67.252 60.9962 66.9627 60.8842 66.748C60.8282 66.6547 60.8142 66.5847 60.8422 66.538C60.9449 66.4353 61.0802 66.328 61.2482 66.216C61.3042 66.1787 61.3556 66.1927 61.4022 66.258C61.4582 66.3233 61.5096 66.4307 61.5562 66.58C61.6682 66.8973 61.6402 67.2847 61.4722 67.742C61.1829 68.498 60.7629 68.9833 60.2122 69.198C60.1656 69.2167 60.1142 69.2353 60.0582 69.254C59.8809 69.3007 59.7129 69.31 59.5542 69.282C59.1902 69.198 58.9756 68.9507 58.9102 68.54C58.8822 68.3533 58.8916 68.162 58.9382 67.966C59.0409 67.4807 59.2416 66.9953 59.5402 66.51C60.0722 65.5953 60.7582 65.0167 61.5982 64.774C61.7196 64.7367 61.8362 64.7087 61.9482 64.69Z" fill="black"/>
<path d="M203.762 102.368C204.49 102.312 204.849 102.284 204.84 102.284C204.924 102.284 204.98 102.317 205.008 102.382C205.017 102.419 204.681 103.81 204 106.554L202.936 110.81C202.917 111.025 202.917 111.197 202.936 111.328C202.955 111.375 202.983 111.412 203.02 111.44C203.048 111.468 203.09 111.482 203.146 111.482C203.211 111.482 203.263 111.473 203.3 111.454C203.477 111.323 203.659 110.899 203.846 110.18C203.893 110.003 203.93 109.905 203.958 109.886C203.977 109.867 204.089 109.858 204.294 109.858C204.499 109.858 204.616 109.867 204.644 109.886C204.663 109.905 204.672 109.942 204.672 109.998C204.672 110.054 204.649 110.166 204.602 110.334C204.257 111.51 203.767 112.117 203.132 112.154C202.656 112.182 202.273 112.019 201.984 111.664C201.937 111.608 201.895 111.547 201.858 111.482C201.839 111.426 201.825 111.398 201.816 111.398L201.718 111.482C201.391 111.771 201.069 111.963 200.752 112.056C200.145 112.261 199.599 112.168 199.114 111.776C199.058 111.729 199.007 111.678 198.96 111.622C198.82 111.482 198.703 111.314 198.61 111.118C198.377 110.642 198.302 110.077 198.386 109.424C198.535 108.36 198.988 107.464 199.744 106.736C200.229 106.269 200.757 105.975 201.326 105.854C201.41 105.835 201.541 105.826 201.718 105.826C201.951 105.826 202.152 105.863 202.32 105.938C202.451 106.003 202.572 106.092 202.684 106.204C202.759 106.279 202.796 106.307 202.796 106.288C202.805 106.279 202.922 105.831 203.146 104.944C203.361 104.076 203.473 103.591 203.482 103.488C203.482 103.404 203.473 103.353 203.454 103.334C203.389 103.269 203.188 103.231 202.852 103.222C202.628 103.222 202.497 103.189 202.46 103.124L202.446 103.082L202.516 102.802C202.553 102.625 202.591 102.517 202.628 102.48C202.656 102.452 202.684 102.438 202.712 102.438L203.762 102.368ZM201.774 106.484C201.391 106.419 201.023 106.601 200.668 107.03C200.575 107.151 200.491 107.282 200.416 107.422C200.276 107.693 200.108 108.225 199.912 109.018C199.791 109.466 199.702 109.858 199.646 110.194C199.609 110.511 199.609 110.754 199.646 110.922C199.739 111.249 199.921 111.435 200.192 111.482C200.351 111.51 200.542 111.477 200.766 111.384C201.102 111.197 201.419 110.885 201.718 110.446L201.788 110.348L202.138 108.948L202.488 107.548L202.46 107.45C202.376 106.918 202.171 106.601 201.844 106.498C201.825 106.489 201.802 106.484 201.774 106.484ZM208.994 105.826C209.218 105.798 209.438 105.807 209.652 105.854C210.212 105.966 210.558 106.26 210.688 106.736C210.744 106.913 210.744 107.1 210.688 107.296C210.623 107.585 210.469 107.795 210.226 107.926C209.881 108.103 209.592 108.089 209.358 107.884C209.265 107.8 209.209 107.688 209.19 107.548C209.144 107.296 209.237 107.049 209.47 106.806C209.517 106.75 209.568 106.708 209.624 106.68L209.708 106.638L209.652 106.596C209.438 106.465 209.148 106.437 208.784 106.512C208.42 106.624 208.098 106.839 207.818 107.156C207.548 107.483 207.314 108.029 207.118 108.794C207.1 108.859 207.081 108.925 207.062 108.99C206.913 109.606 206.838 110.063 206.838 110.362C206.838 110.558 206.848 110.689 206.866 110.754C206.95 111.127 207.174 111.361 207.538 111.454C207.818 111.529 208.192 111.496 208.658 111.356C209.125 111.197 209.55 110.927 209.932 110.544C210.1 110.376 210.217 110.301 210.282 110.32L210.478 110.516C210.609 110.665 210.66 110.773 210.632 110.838C210.586 110.922 210.427 111.09 210.156 111.342C209.615 111.762 208.98 112.023 208.252 112.126C207.926 112.163 207.664 112.168 207.468 112.14C206.647 112.037 206.073 111.631 205.746 110.922C205.69 110.801 205.644 110.67 205.606 110.53C205.42 109.821 205.508 109.06 205.872 108.248C206.096 107.763 206.395 107.333 206.768 106.96C207.123 106.605 207.492 106.339 207.874 106.162C208.248 105.975 208.621 105.863 208.994 105.826ZM218.822 101.528C218.971 101.463 219.093 101.5 219.186 101.64C219.195 101.659 219.205 101.682 219.214 101.71C219.223 101.757 219.223 101.799 219.214 101.836L211.36 115.388C211.304 115.463 211.234 115.5 211.15 115.5C211.057 115.5 210.987 115.467 210.94 115.402C210.875 115.355 210.851 115.276 210.87 115.164L218.724 101.612C218.743 101.584 218.775 101.556 218.822 101.528ZM222.948 102.69L223.312 102.676H223.326C223.644 102.685 223.942 102.755 224.222 102.886C224.633 103.091 224.946 103.404 225.16 103.824C225.347 104.188 225.44 104.603 225.44 105.07C225.44 105.313 225.417 105.546 225.37 105.77C225.277 106.237 225.067 106.675 224.74 107.086C224.638 107.226 224.418 107.45 224.082 107.758C223.672 108.085 223.13 108.453 222.458 108.864C222.234 108.985 222.034 109.107 221.856 109.228C221.315 109.545 220.825 109.97 220.386 110.502C220.396 110.577 220.414 110.619 220.442 110.628C220.62 110.628 221.002 110.684 221.59 110.796C222.374 110.945 222.888 111.001 223.13 110.964C223.55 110.899 223.896 110.628 224.166 110.152C224.232 110.031 224.288 109.909 224.334 109.788C224.372 109.667 224.414 109.601 224.46 109.592C224.488 109.583 224.586 109.578 224.754 109.578H225.062L225.104 109.62C225.132 109.648 225.146 109.681 225.146 109.718C225.128 109.821 225.062 110.017 224.95 110.306C224.558 111.295 224.008 111.925 223.298 112.196C223.214 112.224 223.135 112.247 223.06 112.266C222.986 112.285 222.864 112.294 222.696 112.294C222.528 112.294 222.402 112.285 222.318 112.266C222.057 112.201 221.744 112.047 221.38 111.804C220.904 111.496 220.526 111.323 220.246 111.286C220.06 111.258 219.91 111.319 219.798 111.468C219.733 111.561 219.654 111.757 219.56 112.056C219.514 112.205 219.467 112.285 219.42 112.294C219.383 112.303 219.28 112.308 219.112 112.308H218.818L218.776 112.266C218.739 112.219 218.744 112.121 218.79 111.972C219.126 110.796 219.836 109.802 220.918 108.99C221.114 108.841 221.315 108.705 221.52 108.584C222.584 107.949 223.308 107.24 223.69 106.456C223.802 106.223 223.914 105.845 224.026 105.322C224.092 105.005 224.124 104.72 224.124 104.468C224.124 104.207 224.087 103.997 224.012 103.838C223.891 103.595 223.695 103.437 223.424 103.362C223.284 103.325 223.102 103.325 222.878 103.362C222.682 103.409 222.533 103.46 222.43 103.516C222.02 103.712 221.66 104.053 221.352 104.538C221.222 104.725 221.077 105 220.918 105.364C220.629 106.073 220.578 106.493 220.764 106.624C220.82 106.661 220.918 106.652 221.058 106.596C221.366 106.493 221.618 106.19 221.814 105.686C221.824 105.658 221.833 105.635 221.842 105.616C221.982 105.252 221.996 104.963 221.884 104.748C221.828 104.655 221.814 104.585 221.842 104.538C221.945 104.435 222.08 104.328 222.248 104.216C222.304 104.179 222.356 104.193 222.402 104.258C222.458 104.323 222.51 104.431 222.556 104.58C222.668 104.897 222.64 105.285 222.472 105.742C222.183 106.498 221.763 106.983 221.212 107.198C221.166 107.217 221.114 107.235 221.058 107.254C220.881 107.301 220.713 107.31 220.554 107.282C220.19 107.198 219.976 106.951 219.91 106.54C219.882 106.353 219.892 106.162 219.938 105.966C220.041 105.481 220.242 104.995 220.54 104.51C221.072 103.595 221.758 103.017 222.598 102.774C222.72 102.737 222.836 102.709 222.948 102.69Z" fill="black"/>
<path d="M147.48 147.826L147.76 147.812H147.774C147.979 147.821 148.161 147.868 148.32 147.952C148.479 148.027 148.619 148.129 148.74 148.26L148.852 148.372L148.936 148.302C149.16 148.087 149.403 148.031 149.664 148.134C149.795 148.181 149.883 148.26 149.93 148.372C149.967 148.475 149.958 148.657 149.902 148.918C149.855 149.123 149.711 149.702 149.468 150.654C149.132 152.017 148.959 152.726 148.95 152.782C148.913 153.043 148.908 153.225 148.936 153.328C148.955 153.375 148.983 153.412 149.02 153.44C149.048 153.468 149.09 153.482 149.146 153.482C149.211 153.482 149.263 153.473 149.3 153.454C149.477 153.323 149.659 152.899 149.846 152.18C149.893 152.003 149.93 151.905 149.958 151.886C149.977 151.867 150.089 151.858 150.294 151.858C150.499 151.858 150.616 151.867 150.644 151.886C150.663 151.905 150.672 151.942 150.672 151.998C150.672 152.054 150.649 152.166 150.602 152.334C150.257 153.51 149.767 154.117 149.132 154.154C148.656 154.182 148.273 154.019 147.984 153.664C147.937 153.608 147.895 153.547 147.858 153.482C147.839 153.426 147.825 153.398 147.816 153.398L147.718 153.482C147.391 153.771 147.069 153.963 146.752 154.056C146.145 154.261 145.599 154.168 145.114 153.776C145.058 153.729 145.007 153.678 144.96 153.622C144.82 153.482 144.703 153.314 144.61 153.118C144.33 152.549 144.274 151.881 144.442 151.116C144.657 150.099 145.142 149.259 145.898 148.596C146.402 148.157 146.929 147.901 147.48 147.826ZM147.774 148.484C147.391 148.419 147.023 148.601 146.668 149.03C146.575 149.151 146.491 149.282 146.416 149.422C146.276 149.693 146.108 150.225 145.912 151.018C145.791 151.466 145.702 151.858 145.646 152.194C145.609 152.511 145.609 152.754 145.646 152.922C145.739 153.249 145.921 153.435 146.192 153.482C146.351 153.51 146.542 153.477 146.766 153.384C147.102 153.197 147.419 152.885 147.718 152.446L147.788 152.348L148.138 150.962L148.488 149.562L148.46 149.45C148.376 148.918 148.166 148.601 147.83 148.498C147.811 148.489 147.793 148.484 147.774 148.484ZM153.342 144.368C154.07 144.312 154.43 144.284 154.42 144.284C154.504 144.284 154.56 144.317 154.588 144.382C154.598 144.419 154.444 145.073 154.126 146.342L153.65 148.26L153.79 148.176C154.201 147.924 154.593 147.803 154.966 147.812C155.564 147.84 156.021 148.097 156.338 148.582C156.488 148.806 156.604 149.072 156.688 149.38C156.782 149.856 156.772 150.341 156.66 150.836C156.52 151.564 156.217 152.217 155.75 152.796C155.554 153.048 155.349 153.258 155.134 153.426C154.724 153.771 154.271 154 153.776 154.112C153.692 154.131 153.562 154.14 153.384 154.14C153.207 154.14 153.072 154.131 152.978 154.112C152.782 154.065 152.591 153.977 152.404 153.846C152.171 153.678 151.994 153.468 151.872 153.216C151.742 152.945 151.653 152.651 151.606 152.334C151.578 152.082 151.583 151.779 151.62 151.424C151.639 151.284 151.891 150.243 152.376 148.302C152.852 146.398 153.072 145.409 153.034 145.334C152.969 145.269 152.768 145.231 152.432 145.222C152.208 145.222 152.078 145.189 152.04 145.124L152.026 145.082L152.096 144.802C152.134 144.625 152.171 144.517 152.208 144.48C152.236 144.452 152.264 144.438 152.292 144.438L153.342 144.368ZM155.008 148.512C154.924 148.475 154.789 148.465 154.602 148.484C154.332 148.559 154.056 148.741 153.776 149.03C153.627 149.179 153.487 149.357 153.356 149.562C153.338 149.581 153.249 149.884 153.09 150.472L152.824 151.55C152.638 152.427 152.689 153.006 152.978 153.286C153.062 153.379 153.165 153.44 153.286 153.468C153.585 153.552 153.898 153.445 154.224 153.146C154.523 152.894 154.766 152.455 154.952 151.83C155.018 151.615 155.092 151.34 155.176 151.004C155.372 150.211 155.47 149.665 155.47 149.366C155.47 149.17 155.447 149.016 155.4 148.904C155.335 148.717 155.204 148.587 155.008 148.512ZM164.822 143.528C164.971 143.463 165.093 143.5 165.186 143.64C165.195 143.659 165.205 143.682 165.214 143.71C165.223 143.757 165.223 143.799 165.214 143.836L157.36 157.388C157.304 157.463 157.234 157.5 157.15 157.5C157.057 157.5 156.987 157.467 156.94 157.402C156.875 157.355 156.851 157.276 156.87 157.164L164.724 143.612C164.743 143.584 164.775 143.556 164.822 143.528ZM168.948 144.69L169.312 144.676H169.326C169.644 144.685 169.942 144.755 170.222 144.886C170.633 145.091 170.946 145.404 171.16 145.824C171.347 146.188 171.44 146.603 171.44 147.07C171.44 147.313 171.417 147.546 171.37 147.77C171.277 148.237 171.067 148.675 170.74 149.086C170.638 149.226 170.418 149.45 170.082 149.758C169.672 150.085 169.13 150.453 168.458 150.864C168.234 150.985 168.034 151.107 167.856 151.228C167.315 151.545 166.825 151.97 166.386 152.502C166.396 152.577 166.414 152.619 166.442 152.628C166.62 152.628 167.002 152.684 167.59 152.796C168.374 152.945 168.888 153.001 169.13 152.964C169.55 152.899 169.896 152.628 170.166 152.152C170.232 152.031 170.288 151.909 170.334 151.788C170.372 151.667 170.414 151.601 170.46 151.592C170.488 151.583 170.586 151.578 170.754 151.578H171.062L171.104 151.62C171.132 151.648 171.146 151.681 171.146 151.718C171.128 151.821 171.062 152.017 170.95 152.306C170.558 153.295 170.008 153.925 169.298 154.196C169.214 154.224 169.135 154.247 169.06 154.266C168.986 154.285 168.864 154.294 168.696 154.294C168.528 154.294 168.402 154.285 168.318 154.266C168.057 154.201 167.744 154.047 167.38 153.804C166.904 153.496 166.526 153.323 166.246 153.286C166.06 153.258 165.91 153.319 165.798 153.468C165.733 153.561 165.654 153.757 165.56 154.056C165.514 154.205 165.467 154.285 165.42 154.294C165.383 154.303 165.28 154.308 165.112 154.308H164.818L164.776 154.266C164.739 154.219 164.744 154.121 164.79 153.972C165.126 152.796 165.836 151.802 166.918 150.99C167.114 150.841 167.315 150.705 167.52 150.584C168.584 149.949 169.308 149.24 169.69 148.456C169.802 148.223 169.914 147.845 170.026 147.322C170.092 147.005 170.124 146.72 170.124 146.468C170.124 146.207 170.087 145.997 170.012 145.838C169.891 145.595 169.695 145.437 169.424 145.362C169.284 145.325 169.102 145.325 168.878 145.362C168.682 145.409 168.533 145.46 168.43 145.516C168.02 145.712 167.66 146.053 167.352 146.538C167.222 146.725 167.077 147 166.918 147.364C166.629 148.073 166.578 148.493 166.764 148.624C166.82 148.661 166.918 148.652 167.058 148.596C167.366 148.493 167.618 148.19 167.814 147.686C167.824 147.658 167.833 147.635 167.842 147.616C167.982 147.252 167.996 146.963 167.884 146.748C167.828 146.655 167.814 146.585 167.842 146.538C167.945 146.435 168.08 146.328 168.248 146.216C168.304 146.179 168.356 146.193 168.402 146.258C168.458 146.323 168.51 146.431 168.556 146.58C168.668 146.897 168.64 147.285 168.472 147.742C168.183 148.498 167.763 148.983 167.212 149.198C167.166 149.217 167.114 149.235 167.058 149.254C166.881 149.301 166.713 149.31 166.554 149.282C166.19 149.198 165.976 148.951 165.91 148.54C165.882 148.353 165.892 148.162 165.938 147.966C166.041 147.481 166.242 146.995 166.54 146.51C167.072 145.595 167.758 145.017 168.598 144.774C168.72 144.737 168.836 144.709 168.948 144.69Z" fill="black"/>
<path d="M120.48 85.826L120.76 85.812H120.774C120.979 85.8213 121.161 85.868 121.32 85.952C121.479 86.0267 121.619 86.1293 121.74 86.26L121.852 86.372L121.936 86.302C122.16 86.0873 122.403 86.0313 122.664 86.134C122.795 86.1807 122.883 86.26 122.93 86.372C122.967 86.4747 122.958 86.6567 122.902 86.918C122.855 87.1233 122.711 87.702 122.468 88.654C122.132 90.0167 121.959 90.726 121.95 90.782C121.913 91.0433 121.908 91.2253 121.936 91.328C121.955 91.3747 121.983 91.412 122.02 91.44C122.048 91.468 122.09 91.482 122.146 91.482C122.211 91.482 122.263 91.4727 122.3 91.454C122.477 91.3233 122.659 90.8987 122.846 90.18C122.893 90.0027 122.93 89.9047 122.958 89.886C122.977 89.8673 123.089 89.858 123.294 89.858C123.499 89.858 123.616 89.8673 123.644 89.886C123.663 89.9047 123.672 89.942 123.672 89.998C123.672 90.054 123.649 90.166 123.602 90.334C123.257 91.51 122.767 92.1167 122.132 92.154C121.656 92.182 121.273 92.0187 120.984 91.664C120.937 91.608 120.895 91.5473 120.858 91.482C120.839 91.426 120.825 91.398 120.816 91.398L120.718 91.482C120.391 91.7713 120.069 91.9627 119.752 92.056C119.145 92.2613 118.599 92.168 118.114 91.776C118.058 91.7293 118.007 91.678 117.96 91.622C117.82 91.482 117.703 91.314 117.61 91.118C117.33 90.5487 117.274 89.8813 117.442 89.116C117.657 88.0987 118.142 87.2587 118.898 86.596C119.402 86.1573 119.929 85.9007 120.48 85.826ZM120.774 86.484C120.391 86.4187 120.023 86.6007 119.668 87.03C119.575 87.1513 119.491 87.282 119.416 87.422C119.276 87.6927 119.108 88.2247 118.912 89.018C118.791 89.466 118.702 89.858 118.646 90.194C118.609 90.5113 118.609 90.754 118.646 90.922C118.739 91.2487 118.921 91.4353 119.192 91.482C119.351 91.51 119.542 91.4773 119.766 91.384C120.102 91.1973 120.419 90.8847 120.718 90.446L120.788 90.348L121.138 88.962L121.488 87.562L121.46 87.45C121.376 86.918 121.166 86.6007 120.83 86.498C120.811 86.4887 120.793 86.484 120.774 86.484ZM129.912 82.368C130.64 82.312 131 82.284 130.99 82.284C131.074 82.284 131.13 82.3167 131.158 82.382C131.168 82.4193 130.832 83.81 130.15 86.554L129.086 90.81C129.068 91.0247 129.068 91.1973 129.086 91.328C129.105 91.3747 129.133 91.412 129.17 91.44C129.198 91.468 129.24 91.482 129.296 91.482C129.362 91.482 129.413 91.4727 129.45 91.454C129.628 91.3233 129.81 90.8987 129.996 90.18C130.043 90.0027 130.08 89.9047 130.108 89.886C130.127 89.8673 130.239 89.858 130.444 89.858C130.65 89.858 130.766 89.8673 130.794 89.886C130.813 89.9047 130.822 89.942 130.822 89.998C130.822 90.054 130.799 90.166 130.752 90.334C130.407 91.51 129.917 92.1167 129.282 92.154C128.806 92.182 128.424 92.0187 128.134 91.664C128.088 91.608 128.046 91.5473 128.008 91.482C127.99 91.426 127.976 91.398 127.966 91.398L127.868 91.482C127.542 91.7713 127.22 91.9627 126.902 92.056C126.296 92.2613 125.75 92.168 125.264 91.776C125.208 91.7293 125.157 91.678 125.11 91.622C124.97 91.482 124.854 91.314 124.76 91.118C124.527 90.642 124.452 90.0773 124.536 89.424C124.686 88.36 125.138 87.464 125.894 86.736C126.38 86.2693 126.907 85.9753 127.476 85.854C127.56 85.8353 127.691 85.826 127.868 85.826C128.102 85.826 128.302 85.8633 128.47 85.938C128.601 86.0033 128.722 86.092 128.834 86.204C128.909 86.2787 128.946 86.3067 128.946 86.288C128.956 86.2787 129.072 85.8307 129.296 84.944C129.511 84.076 129.623 83.5907 129.632 83.488C129.632 83.404 129.623 83.3527 129.604 83.334C129.539 83.2687 129.338 83.2313 129.002 83.222C128.778 83.222 128.648 83.1893 128.61 83.124L128.596 83.082L128.666 82.802C128.704 82.6247 128.741 82.5173 128.778 82.48C128.806 82.452 128.834 82.438 128.862 82.438L129.912 82.368ZM127.924 86.484C127.542 86.4187 127.173 86.6007 126.818 87.03C126.725 87.1513 126.641 87.282 126.566 87.422C126.426 87.6927 126.258 88.2247 126.062 89.018C125.941 89.466 125.852 89.858 125.796 90.194C125.759 90.5113 125.759 90.754 125.796 90.922C125.89 91.2487 126.072 91.4353 126.342 91.482C126.501 91.51 126.692 91.4773 126.916 91.384C127.252 91.1973 127.57 90.8847 127.868 90.446L127.938 90.348L128.288 88.948L128.638 87.548L128.61 87.45C128.526 86.918 128.321 86.6007 127.994 86.498C127.976 86.4887 127.952 86.484 127.924 86.484ZM131.729 88.444C131.757 88.4253 132.307 88.416 133.381 88.416H134.991L135.047 88.458C135.075 88.5047 135.089 88.542 135.089 88.57L134.851 89.48L134.795 89.536C134.776 89.5453 134.235 89.55 133.171 89.55C132.079 89.55 131.519 89.5267 131.491 89.48C131.472 89.4613 131.463 89.4333 131.463 89.396L131.673 88.514C131.682 88.4953 131.701 88.472 131.729 88.444ZM138.51 82.368C139.238 82.312 139.598 82.284 139.588 82.284C139.672 82.284 139.728 82.3167 139.756 82.382C139.766 82.4193 139.612 83.0727 139.294 84.342L138.818 86.26L138.958 86.176C139.369 85.924 139.761 85.8027 140.134 85.812C140.732 85.84 141.189 86.0967 141.506 86.582C141.656 86.806 141.772 87.072 141.856 87.38C141.95 87.856 141.94 88.3413 141.828 88.836C141.688 89.564 141.385 90.2173 140.918 90.796C140.722 91.048 140.517 91.258 140.302 91.426C139.892 91.7713 139.439 92 138.944 92.112C138.86 92.1307 138.73 92.14 138.552 92.14C138.375 92.14 138.24 92.1307 138.146 92.112C137.95 92.0653 137.759 91.9767 137.572 91.846C137.339 91.678 137.162 91.468 137.04 91.216C136.91 90.9453 136.821 90.6513 136.774 90.334C136.746 90.082 136.751 89.7787 136.788 89.424C136.807 89.284 137.059 88.2433 137.544 86.302C138.02 84.398 138.24 83.4087 138.202 83.334C138.137 83.2687 137.936 83.2313 137.6 83.222C137.376 83.222 137.246 83.1893 137.208 83.124L137.194 83.082L137.264 82.802C137.302 82.6247 137.339 82.5173 137.376 82.48C137.404 82.452 137.432 82.438 137.46 82.438L138.51 82.368ZM140.176 86.512C140.092 86.4747 139.957 86.4653 139.77 86.484C139.5 86.5587 139.224 86.7407 138.944 87.03C138.795 87.1793 138.655 87.3567 138.524 87.562C138.506 87.5807 138.417 87.884 138.258 88.472L137.992 89.55C137.806 90.4273 137.857 91.006 138.146 91.286C138.23 91.3793 138.333 91.44 138.454 91.468C138.753 91.552 139.066 91.4447 139.392 91.146C139.691 90.894 139.934 90.4553 140.12 89.83C140.186 89.6153 140.26 89.34 140.344 89.004C140.54 88.2107 140.638 87.6647 140.638 87.366C140.638 87.17 140.615 87.016 140.568 86.904C140.503 86.7173 140.372 86.5867 140.176 86.512ZM146.602 85.826C146.826 85.798 147.045 85.8073 147.26 85.854C147.82 85.966 148.165 86.26 148.296 86.736C148.352 86.9133 148.352 87.1 148.296 87.296C148.23 87.5853 148.076 87.7953 147.834 87.926C147.488 88.1033 147.199 88.0893 146.966 87.884C146.872 87.8 146.816 87.688 146.798 87.548C146.751 87.296 146.844 87.0487 147.078 86.806C147.124 86.75 147.176 86.708 147.232 86.68L147.316 86.638L147.26 86.596C147.045 86.4653 146.756 86.4373 146.392 86.512C146.028 86.624 145.706 86.8387 145.426 87.156C145.155 87.4827 144.922 88.0287 144.726 88.794C144.707 88.8593 144.688 88.9247 144.67 88.99C144.52 89.606 144.446 90.0633 144.446 90.362C144.446 90.558 144.455 90.6887 144.474 90.754C144.558 91.1273 144.782 91.3607 145.146 91.454C145.426 91.5287 145.799 91.496 146.266 91.356C146.732 91.1973 147.157 90.9267 147.54 90.544C147.708 90.376 147.824 90.3013 147.89 90.32L148.086 90.516C148.216 90.6653 148.268 90.7727 148.24 90.838C148.193 90.922 148.034 91.09 147.764 91.342C147.222 91.762 146.588 92.0233 145.86 92.126C145.533 92.1633 145.272 92.168 145.076 92.14C144.254 92.0373 143.68 91.6313 143.354 90.922C143.298 90.8007 143.251 90.67 143.214 90.53C143.027 89.8207 143.116 89.06 143.48 88.248C143.704 87.7627 144.002 87.3333 144.376 86.96C144.73 86.6053 145.099 86.3393 145.482 86.162C145.855 85.9753 146.228 85.8633 146.602 85.826Z" fill="black"/>
<path d="M93.48 21.826L93.76 21.812H93.774C93.9793 21.8213 94.1613 21.868 94.32 21.952C94.4787 22.0267 94.6187 22.1293 94.74 22.26L94.852 22.372L94.936 22.302C95.16 22.0873 95.4027 22.0313 95.664 22.134C95.7947 22.1807 95.8833 22.26 95.93 22.372C95.9673 22.4747 95.958 22.6567 95.902 22.918C95.8553 23.1233 95.7107 23.702 95.468 24.654C95.132 26.0167 94.9593 26.726 94.95 26.782C94.9127 27.0433 94.908 27.2253 94.936 27.328C94.9547 27.3747 94.9827 27.412 95.02 27.44C95.048 27.468 95.09 27.482 95.146 27.482C95.2113 27.482 95.2627 27.4727 95.3 27.454C95.4773 27.3233 95.6593 26.8987 95.846 26.18C95.8927 26.0027 95.93 25.9047 95.958 25.886C95.9767 25.8673 96.0887 25.858 96.294 25.858C96.4993 25.858 96.616 25.8673 96.644 25.886C96.6627 25.9047 96.672 25.942 96.672 25.998C96.672 26.054 96.6487 26.166 96.602 26.334C96.2567 27.51 95.7667 28.1167 95.132 28.154C94.656 28.182 94.2733 28.0187 93.984 27.664C93.9373 27.608 93.8953 27.5473 93.858 27.482C93.8393 27.426 93.8253 27.398 93.816 27.398L93.718 27.482C93.3913 27.7713 93.0693 27.9627 92.752 28.056C92.1453 28.2613 91.5993 28.168 91.114 27.776C91.058 27.7293 91.0067 27.678 90.96 27.622C90.82 27.482 90.7033 27.314 90.61 27.118C90.33 26.5487 90.274 25.8813 90.442 25.116C90.6567 24.0987 91.142 23.2587 91.898 22.596C92.402 22.1573 92.9293 21.9007 93.48 21.826ZM93.774 22.484C93.3913 22.4187 93.0227 22.6007 92.668 23.03C92.5747 23.1513 92.4907 23.282 92.416 23.422C92.276 23.6927 92.108 24.2247 91.912 25.018C91.7907 25.466 91.702 25.858 91.646 26.194C91.6087 26.5113 91.6087 26.754 91.646 26.922C91.7393 27.2487 91.9213 27.4353 92.192 27.482C92.3507 27.51 92.542 27.4773 92.766 27.384C93.102 27.1973 93.4193 26.8847 93.718 26.446L93.788 26.348L94.138 24.962L94.488 23.562L94.46 23.45C94.376 22.918 94.166 22.6007 93.83 22.498C93.8113 22.4887 93.7927 22.484 93.774 22.484ZM99.3424 18.368C100.07 18.312 100.43 18.284 100.42 18.284C100.504 18.284 100.56 18.3167 100.588 18.382C100.598 18.4193 100.444 19.0727 100.126 20.342L99.6504 22.26L99.7904 22.176C100.201 21.924 100.593 21.8027 100.966 21.812C101.564 21.84 102.021 22.0967 102.338 22.582C102.488 22.806 102.604 23.072 102.688 23.38C102.782 23.856 102.772 24.3413 102.66 24.836C102.52 25.564 102.217 26.2173 101.75 26.796C101.554 27.048 101.349 27.258 101.134 27.426C100.724 27.7713 100.271 28 99.7764 28.112C99.6924 28.1307 99.5617 28.14 99.3844 28.14C99.2071 28.14 99.0717 28.1307 98.9784 28.112C98.7824 28.0653 98.5911 27.9767 98.4044 27.846C98.1711 27.678 97.9937 27.468 97.8724 27.216C97.7417 26.9453 97.6531 26.6513 97.6064 26.334C97.5784 26.082 97.5831 25.7787 97.6204 25.424C97.6391 25.284 97.8911 24.2433 98.3764 22.302C98.8524 20.398 99.0717 19.4087 99.0344 19.334C98.9691 19.2687 98.7684 19.2313 98.4324 19.222C98.2084 19.222 98.0777 19.1893 98.0404 19.124L98.0264 19.082L98.0964 18.802C98.1337 18.6247 98.1711 18.5173 98.2084 18.48C98.2364 18.452 98.2644 18.438 98.2924 18.438L99.3424 18.368ZM101.008 22.512C100.924 22.4747 100.789 22.4653 100.602 22.484C100.332 22.5587 100.056 22.7407 99.7764 23.03C99.6271 23.1793 99.4871 23.3567 99.3564 23.562C99.3377 23.5807 99.2491 23.884 99.0904 24.472L98.8244 25.55C98.6377 26.4273 98.6891 27.006 98.9784 27.286C99.0624 27.3793 99.1651 27.44 99.2864 27.468C99.5851 27.552 99.8977 27.4447 100.224 27.146C100.523 26.894 100.766 26.4553 100.952 25.83C101.018 25.6153 101.092 25.34 101.176 25.004C101.372 24.2107 101.47 23.6647 101.47 23.366C101.47 23.17 101.447 23.016 101.4 22.904C101.335 22.7173 101.204 22.5867 101.008 22.512ZM110.822 17.528C110.971 17.4627 111.093 17.5 111.186 17.64C111.195 17.6587 111.205 17.682 111.214 17.71C111.223 17.7567 111.223 17.7987 111.214 17.836L103.36 31.388C103.304 31.4627 103.234 31.5 103.15 31.5C103.057 31.5 102.987 31.4673 102.94 31.402C102.875 31.3553 102.851 31.276 102.87 31.164L110.724 17.612C110.743 17.584 110.775 17.556 110.822 17.528ZM114.948 18.69L115.312 18.676H115.326C115.644 18.6853 115.942 18.7553 116.222 18.886C116.633 19.0913 116.946 19.404 117.16 19.824C117.347 20.188 117.44 20.6033 117.44 21.07C117.44 21.3127 117.417 21.546 117.37 21.77C117.277 22.2367 117.067 22.6753 116.74 23.086C116.638 23.226 116.418 23.45 116.082 23.758C115.672 24.0847 115.13 24.4533 114.458 24.864C114.234 24.9853 114.034 25.1067 113.856 25.228C113.315 25.5453 112.825 25.97 112.386 26.502C112.396 26.5767 112.414 26.6187 112.442 26.628C112.62 26.628 113.002 26.684 113.59 26.796C114.374 26.9453 114.888 27.0013 115.13 26.964C115.55 26.8987 115.896 26.628 116.166 26.152C116.232 26.0307 116.288 25.9093 116.334 25.788C116.372 25.6667 116.414 25.6013 116.46 25.592C116.488 25.5827 116.586 25.578 116.754 25.578H117.062L117.104 25.62C117.132 25.648 117.146 25.6807 117.146 25.718C117.128 25.8207 117.062 26.0167 116.95 26.306C116.558 27.2953 116.008 27.9253 115.298 28.196C115.214 28.224 115.135 28.2473 115.06 28.266C114.986 28.2847 114.864 28.294 114.696 28.294C114.528 28.294 114.402 28.2847 114.318 28.266C114.057 28.2007 113.744 28.0467 113.38 27.804C112.904 27.496 112.526 27.3233 112.246 27.286C112.06 27.258 111.91 27.3187 111.798 27.468C111.733 27.5613 111.654 27.7573 111.56 28.056C111.514 28.2053 111.467 28.2847 111.42 28.294C111.383 28.3033 111.28 28.308 111.112 28.308H110.818L110.776 28.266C110.739 28.2193 110.744 28.1213 110.79 27.972C111.126 26.796 111.836 25.802 112.918 24.99C113.114 24.8407 113.315 24.7053 113.52 24.584C114.584 23.9493 115.308 23.24 115.69 22.456C115.802 22.2227 115.914 21.8447 116.026 21.322C116.092 21.0047 116.124 20.72 116.124 20.468C116.124 20.2067 116.087 19.9967 116.012 19.838C115.891 19.5953 115.695 19.4367 115.424 19.362C115.284 19.3247 115.102 19.3247 114.878 19.362C114.682 19.4087 114.533 19.46 114.43 19.516C114.02 19.712 113.66 20.0527 113.352 20.538C113.222 20.7247 113.077 21 112.918 21.364C112.629 22.0733 112.578 22.4933 112.764 22.624C112.82 22.6613 112.918 22.652 113.058 22.596C113.366 22.4933 113.618 22.19 113.814 21.686C113.824 21.658 113.833 21.6347 113.842 21.616C113.982 21.252 113.996 20.9627 113.884 20.748C113.828 20.6547 113.814 20.5847 113.842 20.538C113.945 20.4353 114.08 20.328 114.248 20.216C114.304 20.1787 114.356 20.1927 114.402 20.258C114.458 20.3233 114.51 20.4307 114.556 20.58C114.668 20.8973 114.64 21.2847 114.472 21.742C114.183 22.498 113.763 22.9833 113.212 23.198C113.166 23.2167 113.114 23.2353 113.058 23.254C112.881 23.3007 112.713 23.31 112.554 23.282C112.19 23.198 111.976 22.9507 111.91 22.54C111.882 22.3533 111.892 22.162 111.938 21.966C112.041 21.4807 112.242 20.9953 112.54 20.51C113.072 19.5953 113.758 19.0167 114.598 18.774C114.72 18.7367 114.836 18.7087 114.948 18.69Z" fill="black"/>
</g>
<defs>
<clipPath id="clip0_1_2">
<rect width="239" height="205" fill="white"/>
</clipPath>
</defs>
</svg>
