<svg version="1.1" xmlns="http://www.w3.org/2000/svg" viewBox="-113.5 112.3 1702.5 743.4">
<rect x="-113.5" y="112.3" width="1702.5" height="743.4" fill="#ffffff" />
<polyline points="78.0 223.0,78.0 226.0,79.0 232.0,79.0 236.0,78.0 255.0,78.0 258.0,77.0 264.0,77.0 267.0,76.0 270.0,75.0 277.0,75.0 280.0,74.0 289.0,74.0 297.0,73.0 304.0,73.0 308.0,72.0 316.0,72.0 320.0,71.0 328.0,71.0 332.0,70.0 371.0,70.0 376.0,72.0 470.0,72.0 477.0,73.0 483.0,74.0 497.0,75.0 504.0,76.0 510.0,78.0 524.0,78.0 531.0,80.0 544.0,80.0 550.0,81.0 563.0,82.0 569.0,82.0 575.0,83.0 592.0,83.0 597.0,84.0 625.0,84.0 630.0,84.0 634.0" style="fill:none;stroke:#000000;stroke-width:2"/>
<polyline points="80.0 219.0,82.0 218.0,87.0 218.0,119.0 217.0,128.0 217.0,142.0 216.0,147.0 216.0,253.0 214.0,260.0 214.0,307.0 213.0,314.0 213.0,348.0 212.0,355.0 212.0,376.0 211.0,383.0 210.0,390.0 210.0,403.0 209.0,410.0 209.0,423.0 208.0,430.0 208.0,476.0 207.0,482.0 207.0,496.0 205.0,503.0 205.0,510.0 204.0,532.0 200.0,545.0 199.0,551.0 198.0,562.0 197.0,567.0 197.0,578.0 196.0,581.0 196.0,586.0 197.0,588.0 197.0" style="fill:none;stroke:#000000;stroke-width:2"/>
<polyline points="594.0 198.0,594.0 203.0,595.0 236.0,595.0 241.0,596.0 251.0,597.0 257.0,598.0 268.0,599.0 273.0,600.0 285.0,601.0 292.0,602.0 298.0,603.0 311.0,604.0 318.0,605.0 332.0,606.0 353.0,606.0 367.0,607.0 375.0,607.0 390.0,609.0 488.0,609.0 494.0,610.0 505.0,611.0 510.0,612.0 521.0,613.0 527.0,613.0 532.0,614.0 542.0,615.0 547.0,615.0 551.0,616.0 563.0,616.0 567.0,617.0 577.0,617.0 583.0,615.0 603.0" style="fill:none;stroke:#000000;stroke-width:2"/>
<polyline points="87.0 630.0,91.0 630.0,114.0 629.0,117.0 629.0,149.0 628.0,153.0 628.0,179.0 629.0,189.0 629.0,246.0 628.0,251.0 628.0,289.0 627.0,295.0 627.0,311.0 626.0,322.0 626.0,346.0 627.0,351.0 627.0,365.0 628.0,370.0 628.0,384.0 629.0,394.0 629.0,485.0 627.0,490.0 626.0,500.0 625.0,516.0 624.0,521.0 623.0,530.0 623.0,551.0 622.0,555.0 622.0,563.0 621.0,566.0 621.0,573.0 620.0,576.0 620.0,582.0 618.0,588.0 617.0,593.0 615.0,595.0 614.0,601.0 612.0,603.0 611.0,607.0 610.0,609.0 609.0,613.0 608.0,616.0 607.0,620.0 607.0,624.0 606.0,627.0 605.0" style="fill:none;stroke:#000000;stroke-width:2"/>
<polyline points="142.0 219.0,142.0 224.0,143.0 228.0,143.0 233.0,144.0 235.0,145.0 241.0,146.0 248.0,146.0 251.0,147.0 260.0,147.0 263.0,148.0 269.0,148.0 272.0,149.0 281.0,149.0 284.0,150.0 291.0,150.0 294.0,151.0 301.0,151.0 305.0,152.0 320.0,152.0 324.0,153.0 331.0,153.0 335.0,154.0 347.0,154.0 351.0,155.0 359.0,155.0 363.0,156.0 372.0,156.0 376.0,157.0 385.0,158.0 389.0,160.0 401.0,160.0 406.0,161.0 410.0,162.0 418.0,163.0 422.0,164.0 430.0,165.0 434.0,166.0 442.0,167.0 446.0,169.0 458.0,170.0 462.0,172.0 474.0,173.0 478.0,173.0 482.0,174.0 491.0,174.0 495.0,175.0 503.0,175.0 508.0,176.0 516.0,176.0 520.0,177.0 532.0,177.0 536.0,178.0 551.0,178.0 559.0,179.0 574.0,179.0 582.0,180.0 599.0,180.0 602.0,180.0 624.0" style="fill:none;stroke:#000000;stroke-width:2"/>
<polyline points="214.0 226.0,214.0 230.0,215.0 239.0,215.0 242.0,216.0 244.0,216.0 249.0,217.0 252.0,217.0 256.0,218.0 264.0,218.0 268.0,219.0 276.0,220.0 281.0,221.0 290.0,221.0 295.0,223.0 306.0,223.0 311.0,224.0 316.0,225.0 322.0,227.0 332.0,232.0 353.0,234.0 363.0,235.0 369.0,238.0 385.0,239.0 391.0,241.0 401.0,242.0 407.0,243.0 412.0,246.0 433.0,248.0 443.0,250.0 458.0,251.0 463.0,252.0 472.0,252.0 477.0,253.0 490.0,254.0 495.0,254.0 499.0,255.0 508.0,256.0 512.0,256.0 517.0,257.0 525.0,258.0 529.0,259.0 538.0,259.0 541.0,260.0 553.0,260.0 560.0,261.0 584.0,261.0 587.0,262.0 600.0,262.0 604.0,263.0 623.0,263.0 626.0,264.0 631.0" style="fill:none;stroke:#000000;stroke-width:2"/>
<polyline points="296.0 221.0,296.0 226.0,297.0 229.0,297.0 233.0,298.0 245.0,298.0 248.0,299.0 260.0,299.0 264.0,300.0 273.0,301.0 277.0,302.0 282.0,303.0 291.0,304.0 295.0,305.0 305.0,305.0 310.0,306.0 319.0,306.0 324.0,307.0 329.0,307.0 333.0,308.0 342.0,308.0 347.0,309.0 356.0,310.0 361.0,310.0 365.0,312.0 374.0,313.0 383.0,314.0 388.0,316.0 397.0,316.0 401.0,317.0 405.0,318.0 414.0,318.0 418.0,319.0 422.0,319.0 431.0,320.0 435.0,320.0 439.0,321.0 447.0,321.0 451.0,322.0 459.0,323.0 463.0,323.0 471.0,324.0 475.0,324.0 478.0,325.0 490.0,325.0 493.0,326.0 505.0,326.0 509.0,327.0 524.0,327.0 528.0,328.0 555.0,328.0 559.0,326.0 617.0,326.0 615.0" style="fill:none;stroke:#000000;stroke-width:2"/>
<polyline points="369.0 223.0,369.0 227.0,370.0 230.0,370.0 234.0,371.0 238.0,371.0 241.0,372.0 251.0,372.0 259.0,373.0 264.0,373.0 269.0,374.0 280.0,374.0 285.0,375.0 291.0,375.0 303.0,376.0 310.0,376.0 316.0,377.0 329.0,377.0 335.0,379.0 347.0,379.0 353.0,381.0 366.0,381.0 372.0,383.0 384.0,383.0 390.0,384.0 402.0,385.0 420.0,387.0 431.0,387.0 436.0,389.0 447.0,390.0 452.0,391.0 462.0,392.0 467.0,393.0 471.0,394.0 480.0,394.0 484.0,395.0 493.0,395.0 501.0,396.0 513.0,396.0 516.0,397.0 524.0,397.0 527.0,398.0 534.0,399.0 538.0,399.0 541.0,400.0 547.0,400.0 550.0,401.0 554.0,401.0 557.0,402.0 563.0,402.0 569.0,403.0 581.0,403.0 587.0,404.0 614.0,404.0 617.0,404.0 620.0" style="fill:none;stroke:#000000;stroke-width:2"/>
<polyline points="435.0 215.0,436.0 218.0,436.0 222.0,437.0 225.0,437.0 230.0,438.0 235.0,438.0 243.0,439.0 256.0,439.0 261.0,440.0 288.0,440.0 294.0,441.0 307.0,441.0 319.0,442.0 325.0,442.0 331.0,444.0 343.0,444.0 348.0,446.0 360.0,447.0 365.0,448.0 377.0,449.0 383.0,450.0 388.0,451.0 400.0,452.0 405.0,453.0 415.0,454.0 420.0,456.0 435.0,457.0 440.0,458.0 450.0,458.0 456.0,459.0 465.0,460.0 470.0,460.0 474.0,461.0 483.0,462.0 487.0,462.0 491.0,463.0 498.0,464.0 502.0,464.0 506.0,465.0 513.0,466.0 516.0,467.0 523.0,468.0 526.0,469.0 533.0,469.0 536.0,470.0 539.0,471.0 545.0,472.0 550.0,473.0 556.0,474.0 563.0,475.0 566.0,475.0 571.0,476.0 574.0,476.0 579.0,477.0 591.0,477.0 594.0,478.0 601.0,478.0 608.0,479.0 614.0,479.0 621.0,478.0 633.0" style="fill:none;stroke:#000000;stroke-width:2"/>
<polyline points="508.0 208.0,509.0 205.0,507.0 208.0,508.0 214.0,509.0 223.0,510.0 229.0,511.0 232.0,511.0 236.0,512.0 243.0,513.0 248.0,513.0 252.0,514.0 261.0,515.0 266.0,516.0 276.0,517.0 281.0,519.0 290.0,520.0 295.0,527.0 335.0,528.0 340.0,530.0 349.0,530.0 354.0,532.0 363.0,532.0 368.0,533.0 378.0,533.0 382.0,534.0 391.0,534.0 395.0,535.0 400.0,535.0 407.0,536.0 411.0,536.0 415.0,537.0 426.0,537.0 434.0,538.0 438.0,538.0 445.0,539.0 452.0,539.0 460.0,538.0 480.0,538.0 486.0,539.0 530.0,539.0 533.0,540.0 555.0,540.0 558.0,541.0 567.0,541.0 572.0,542.0 575.0,542.0 580.0,543.0 588.0,543.0 591.0,544.0 612.0,544.0 616.0,545.0 630.0,544.0 631.0" style="fill:none;stroke:#000000;stroke-width:2"/>
<polyline points="80.0 291.0,86.0 292.0,90.0 292.0,95.0 291.0,103.0 290.0,106.0 290.0,109.0 289.0,115.0 288.0,118.0 288.0,125.0 286.0,128.0 286.0,132.0 285.0,139.0 283.0,142.0 283.0,150.0 281.0,154.0 281.0,162.0 280.0,166.0 279.0,173.0 279.0,176.0 278.0,180.0 278.0,190.0 277.0,194.0 277.0,204.0 276.0,208.0 275.0,215.0 275.0,219.0 274.0,226.0 274.0,236.0 273.0,240.0 273.0,250.0 272.0,254.0 272.0,258.0 271.0,265.0 270.0,268.0 270.0,276.0 269.0,279.0 269.0,286.0 268.0,289.0 268.0,391.0 267.0,408.0 266.0,413.0 266.0,426.0 265.0,434.0 265.0,516.0 263.0,519.0 263.0,527.0 262.0,530.0 262.0,556.0 261.0,560.0 261.0,563.0 260.0,567.0 259.0,573.0 258.0,578.0 258.0,594.0 257.0,596.0 257.0" style="fill:none;stroke:#000000;stroke-width:2"/>
<polyline points="88.0 336.0,93.0 337.0,100.0 336.0,103.0 336.0,106.0 335.0,113.0 334.0,117.0 334.0,126.0 333.0,130.0 332.0,135.0 332.0,145.0 331.0,150.0 330.0,161.0 330.0,171.0 329.0,182.0 329.0,203.0 330.0,208.0 330.0,264.0 329.0,271.0 329.0,289.0 328.0,295.0 328.0,335.0 329.0,340.0 329.0,361.0 330.0,367.0 330.0,378.0 331.0,384.0 331.0,400.0 332.0,405.0 332.0,410.0 333.0,416.0 333.0,431.0 334.0,441.0 334.0,463.0 335.0,473.0 335.0,501.0 334.0,510.0 334.0,535.0 333.0,538.0 333.0,566.0 332.0,569.0 332.0,571.0 331.0,574.0 331.0,580.0 330.0,584.0 330.0,589.0 329.0,592.0 329.0,594.0 328.0,598.0 328.0,601.0 327.0,603.0 327.0" style="fill:none;stroke:#000000;stroke-width:2"/>
<polyline points="72.0 406.0,78.0 406.0,88.0 405.0,94.0 405.0,98.0 404.0,105.0 403.0,110.0 402.0,119.0 401.0,123.0 400.0,133.0 399.0,138.0 398.0,142.0 398.0,147.0 397.0,158.0 396.0,163.0 396.0,178.0 395.0,184.0 395.0,193.0 394.0,198.0 394.0,299.0 394.0,321.0 395.0,326.0 395.0,332.0 394.0,343.0 394.0,383.0 393.0,388.0 393.0,411.0 392.0,423.0 392.0,446.0 391.0,452.0 391.0,501.0 392.0,509.0 392.0,520.0 393.0,526.0 393.0,544.0 394.0,547.0 394.0,556.0 393.0,561.0 393.0,579.0 392.0,583.0 392.0,595.0 391.0,599.0 391.0,601.0 390.0,604.0 390.0,611.0 389.0" style="fill:none;stroke:#000000;stroke-width:2"/>
<polyline points="70.0 450.0,74.0 450.0,99.0 449.0,107.0 449.0,146.0 450.0,151.0 450.0,161.0 451.0,167.0 452.0,178.0 453.0,183.0 453.0,194.0 454.0,200.0 455.0,212.0 456.0,217.0 457.0,224.0 457.0,236.0 458.0,242.0 459.0,248.0 459.0,261.0 460.0,267.0 461.0,273.0 461.0,285.0 462.0,292.0 462.0,392.0 461.0,397.0 460.0,408.0 460.0,413.0 459.0,419.0 459.0,429.0 458.0,434.0 458.0,438.0 457.0,448.0 457.0,452.0 456.0,457.0 456.0,465.0 455.0,469.0 455.0,481.0 454.0,488.0 454.0,524.0 453.0,527.0 453.0,556.0 452.0,561.0 452.0,565.0 451.0,568.0 450.0,573.0 449.0,576.0 448.0,580.0 447.0,584.0 447.0,586.0 446.0,590.0 445.0,602.0 443.0,605.0 442.0,609.0 441.0,613.0 441.0,615.0 441.0" style="fill:none;stroke:#000000;stroke-width:2"/>
<polyline points="78.0 530.0,81.0 529.0,87.0 528.0,90.0 527.0,94.0 527.0,96.0 526.0,103.0 526.0,106.0 525.0,112.0 525.0,123.0 524.0,126.0 524.0,130.0 523.0,138.0 523.0,147.0 522.0,156.0 522.0,181.0 521.0,191.0 521.0,207.0 522.0,212.0 522.0,297.0 520.0,310.0 520.0,363.0 519.0,370.0 519.0,391.0 518.0,397.0 517.0,411.0 516.0,417.0 515.0,431.0 514.0,437.0 513.0,444.0 512.0,457.0 511.0,463.0 510.0,469.0 510.0,480.0 509.0,485.0 509.0,500.0 508.0,509.0 508.0,542.0 509.0,546.0 509.0,552.0 510.0,557.0 510.0,563.0 511.0,567.0 511.0,578.0 510.0,582.0 510.0,597.0 509.0,600.0 509.0,603.0 508.0,605.0 508.0" style="fill:none;stroke:#000000;stroke-width:2"/>
<polyline points="95.0 581.0,101.0 581.0,106.0 582.0,109.0 582.0,127.0 583.0,131.0 583.0,234.0 583.0,240.0 584.0,251.0 584.0,269.0 585.0,274.0 585.0,305.0 584.0,318.0 584.0,331.0 583.0,350.0 582.0,362.0 581.0,368.0 580.0,381.0 579.0,386.0 579.0,398.0 578.0,403.0 578.0,409.0 577.0,414.0 577.0,425.0 576.0,431.0 575.0,443.0 574.0,448.0 573.0,460.0 572.0,465.0 571.0,475.0 570.0,480.0 569.0,485.0 569.0,494.0 568.0,498.0 567.0,502.0 567.0,510.0 566.0,514.0 566.0,518.0 565.0,525.0 565.0,535.0 564.0,538.0 564.0,546.0 563.0,552.0 563.0,562.0 562.0,565.0 562.0,578.0 561.0,585.0 560.0,591.0 559.0,595.0 559.0,599.0 558.0,604.0 557.0,608.0 556.0,612.0 556.0,614.0 555.0,619.0 554.0,622.0 554.0,625.0 553.0" style="fill:none;stroke:#000000;stroke-width:2"/>
<polyline points="102.0 237.0,100.0 240.0,99.0 242.0,98.0 245.0,97.0 249.0,99.0 248.0,102.0 245.0,103.0 243.0,106.0 240.0,107.0 238.0,105.0 240.0,104.0 242.0,100.0 251.0,99.0 253.0,96.0 257.0,94.0 261.0,96.0 262.0,99.0 260.0,102.0 257.0,106.0 252.0,107.0 250.0,109.0 248.0,108.0 251.0,107.0 253.0,105.0 258.0,103.0 261.0,102.0 264.0,99.0 269.0,98.0 271.0,97.0 275.0,96.0 277.0,100.0 276.0,105.0 271.0,112.0 262.0,114.0 260.0,119.0 256.0,120.0 258.0,119.0 262.0,118.0 268.0,117.0 270.0,115.0 275.0,115.0 280.0,116.0 282.0,119.0 281.0,123.0 277.0,125.0 274.0,132.0 266.0,134.0 263.0,138.0 259.0,139.0 257.0,141.0 255.0,140.0 259.0,138.0 263.0,135.0 268.0,134.0 272.0,136.0 275.0,137.0 274.0" style="fill:none;stroke:#5784ff;stroke-width:2"/>
<polyline points="98.0 302.0,96.0 305.0,95.0 309.0,94.0 311.0,93.0 314.0,91.0 318.0,90.0 322.0,93.0 321.0,97.0 318.0,98.0 315.0,100.0 313.0,103.0 309.0,107.0 303.0,110.0 300.0,110.0 303.0,109.0 305.0,108.0 309.0,107.0 315.0,109.0 318.0,112.0 314.0,114.0 312.0,120.0 305.0,122.0 302.0,124.0 301.0,124.0 306.0,123.0 311.0,122.0 314.0,121.0 318.0,120.0 320.0,120.0 323.0,123.0 324.0,126.0 321.0,130.0 318.0,131.0 316.0,135.0 312.0,136.0 310.0,139.0 307.0,140.0 310.0,139.0 313.0,138.0 317.0,138.0 320.0,141.0 321.0,143.0 320.0" style="fill:none;stroke:#5784ff;stroke-width:2"/>
<polyline points="173.0 293.0,171.0 295.0,170.0 297.0,168.0 300.0,167.0 302.0,166.0 306.0,169.0 304.0,173.0 299.0,175.0 297.0,178.0 293.0,180.0 290.0,182.0 288.0,182.0 292.0,181.0 294.0,180.0 299.0,179.0 301.0,177.0 306.0,176.0 310.0,178.0 312.0,179.0 310.0,181.0 309.0,185.0 305.0,194.0 295.0,196.0 294.0,199.0 294.0,198.0 297.0,197.0 301.0,195.0 305.0,194.0 308.0,197.0 309.0,199.0 306.0,201.0 304.0,205.0 301.0,207.0 299.0,210.0 297.0,212.0 298.0,212.0 301.0,211.0 310.0,211.0 313.0,212.0 315.0,214.0 317.0" style="fill:none;stroke:#5784ff;stroke-width:2"/>
<polyline points="95.0 345.0,96.0 343.0,95.0 346.0,94.0 348.0,93.0 352.0,92.0 355.0,91.0 360.0,90.0 363.0,89.0 369.0,89.0 373.0,92.0 373.0,94.0 370.0,97.0 367.0,100.0 363.0,101.0 361.0,102.0 358.0,105.0 354.0,106.0 352.0,109.0 349.0,110.0 352.0,110.0 357.0,108.0 364.0,107.0 367.0,107.0 371.0,105.0 377.0,103.0 384.0,102.0 386.0,106.0 382.0,110.0 377.0,114.0 371.0,121.0 362.0,123.0 359.0,125.0 357.0,129.0 352.0,131.0 350.0,133.0 351.0,133.0 354.0,132.0 357.0,132.0 360.0,130.0 367.0,129.0 370.0,125.0 383.0,124.0 385.0,127.0 384.0,130.0 379.0,132.0 377.0,136.0 371.0,141.0 364.0,143.0 362.0,146.0 363.0,145.0 367.0,144.0 372.0,143.0 374.0,141.0 380.0,143.0 381.0,148.0 378.0" style="fill:none;stroke:#5784ff;stroke-width:2"/>
<polyline points="185.0 333.0,183.0 334.0,180.0 338.0,178.0 341.0,175.0 346.0,173.0 349.0,174.0 352.0,176.0 351.0,179.0 349.0,183.0 345.0,192.0 337.0,193.0 335.0,195.0 338.0,193.0 343.0,192.0 347.0,191.0 350.0,188.0 357.0,186.0 360.0,185.0 363.0,184.0 365.0,182.0 372.0,185.0 369.0,189.0 364.0,194.0 358.0,196.0 355.0,199.0 353.0,203.0 348.0,205.0 346.0,208.0 344.0,210.0 346.0,209.0 350.0,208.0 353.0,206.0 356.0,205.0 359.0,202.0 365.0,201.0 368.0,199.0 370.0,198.0 374.0,197.0 376.0,200.0 374.0,202.0 371.0,206.0 367.0,207.0 365.0,209.0 364.0,211.0 362.0,212.0 366.0,211.0 370.0,210.0 376.0,212.0 378.0,214.0 377.0" style="fill:none;stroke:#5784ff;stroke-width:2"/>
<polyline points="251.0 336.0,250.0 338.0,248.0 340.0,246.0 344.0,243.0 349.0,241.0 352.0,243.0 354.0,246.0 353.0,248.0 350.0,250.0 349.0,253.0 347.0,257.0 346.0,256.0 349.0,255.0 354.0,254.0 356.0,253.0 361.0,252.0 363.0,251.0 366.0,251.0 369.0,253.0 370.0,257.0 369.0,261.0 366.0,265.0 362.0,268.0 360.0,272.0 357.0,274.0 355.0,277.0 353.0,279.0 355.0,278.0 358.0,277.0 360.0,275.0 366.0,273.0 369.0,271.0 374.0,270.0 376.0,269.0 379.0,271.0 378.0,276.0 372.0,279.0 370.0,283.0 365.0,285.0 363.0,288.0 361.0,293.0 359.0,296.0 361.0,295.0 365.0,294.0 374.0,293.0 376.0,293.0 380.0,294.0 383.0,297.0 383.0,302.0 380.0,304.0 378.0,309.0 374.0,311.0 373.0,313.0 376.0,314.0 379.0,314.0 383.0,315.0 385.0,316.0 388.0,317.0 389.0" style="fill:none;stroke:#5784ff;stroke-width:2"/>
<polyline points="191.0 405.0,189.0 407.0,187.0 408.0,185.0 411.0,184.0 414.0,183.0 419.0,182.0 421.0,182.0 426.0,185.0 426.0,186.0 424.0,188.0 422.0,190.0 418.0,192.0 416.0,193.0 414.0,196.0 409.0,197.0 406.0,197.0 411.0,196.0 418.0,195.0 424.0,194.0 427.0,193.0 431.0,193.0 435.0,197.0 433.0,198.0 431.0,200.0 429.0,204.0 424.0,206.0 421.0,209.0 418.0,212.0 414.0,214.0 412.0,217.0 411.0,218.0 413.0,217.0 418.0,215.0 424.0,214.0 428.0,213.0 431.0,210.0 438.0,208.0 444.0,209.0 447.0,211.0 445.0,213.0 444.0,216.0 439.0,218.0 437.0,220.0 434.0,224.0 430.0,225.0 428.0,228.0 426.0,230.0 428.0,229.0 431.0,228.0 436.0,228.0 440.0,227.0 442.0,227.0 446.0,228.0 448.0,231.0 449.0,232.0 448.0" style="fill:none;stroke:#5784ff;stroke-width:2"/>
<polyline points="274.0 407.0,273.0 410.0,270.0 415.0,269.0 418.0,268.0 420.0,267.0 424.0,266.0 427.0,267.0 430.0,269.0 428.0,272.0 426.0,273.0 424.0,277.0 420.0,278.0 418.0,281.0 415.0,284.0 414.0,284.0 418.0,283.0 420.0,280.0 428.0,279.0 431.0,277.0 436.0,276.0 440.0,276.0 444.0,278.0 443.0,280.0 441.0,299.0 423.0,301.0 422.0,306.0 421.0,305.0 424.0,304.0 429.0,302.0 434.0,301.0 437.0,299.0 442.0,298.0 444.0,298.0 447.0,297.0 450.0,301.0 449.0,303.0 448.0" style="fill:none;stroke:#5784ff;stroke-width:2"/>
<polyline points="336.0 408.0,334.0 410.0,331.0 414.0,334.0 413.0,336.0 410.0,339.0 407.0,343.0 404.0,346.0 403.0,346.0 407.0,344.0 415.0,342.0 422.0,341.0 426.0,339.0 432.0,338.0 434.0,338.0 438.0,337.0 442.0,342.0 441.0,345.0 438.0,352.0 430.0,357.0 426.0,358.0 424.0,361.0 422.0,362.0 424.0,361.0 428.0,359.0 432.0,358.0 435.0,357.0 437.0,353.0 446.0,355.0 447.0,358.0 445.0,362.0 442.0,364.0 439.0,368.0 436.0,370.0 434.0,373.0 432.0,375.0 434.0,374.0 436.0,374.0 439.0,375.0 443.0" style="fill:none;stroke:#5784ff;stroke-width:2"/>
<polyline points="285.0 482.0,283.0 478.0,283.0 475.0,282.0 478.0,280.0 486.0,278.0 492.0,278.0 495.0,280.0 496.0,283.0 492.0,284.0 490.0,288.0 484.0,290.0 482.0,294.0 477.0,296.0 475.0,298.0 472.0,300.0 473.0,300.0 476.0,299.0 481.0,298.0 485.0,297.0 491.0,296.0 494.0,295.0 499.0,294.0 501.0,293.0 506.0,296.0 505.0,300.0 500.0,302.0 498.0,306.0 493.0,310.0 490.0,312.0 492.0,311.0 494.0,310.0 499.0,310.0 502.0,308.0 507.0,307.0 510.0,306.0 516.0,306.0 519.0,307.0 521.0,313.0 519.0,315.0 518.0" style="fill:none;stroke:#5784ff;stroke-width:2"/>
<polyline points="349.0 482.0,348.0 484.0,347.0 487.0,345.0 491.0,345.0 495.0,346.0 493.0,353.0 481.0,354.0 479.0,356.0 476.0,356.0 482.0,355.0 487.0,354.0 493.0,353.0 496.0,352.0 502.0,351.0 505.0,354.0 503.0,356.0 502.0,359.0 497.0,361.0 495.0,363.0 492.0,367.0 488.0,369.0 487.0,371.0 485.0,371.0 489.0,370.0 493.0,369.0 495.0,368.0 499.0,367.0 502.0,368.0 506.0,372.0 503.0,374.0 501.0,376.0 500.0" style="fill:none;stroke:#5784ff;stroke-width:2"/>
<polyline points="412.0 474.0,410.0 478.0,409.0 485.0,408.0 488.0,410.0 487.0,413.0 484.0,414.0 482.0,418.0 478.0,419.0 476.0,422.0 473.0,425.0 471.0,425.0 475.0,424.0 480.0,424.0 483.0,422.0 488.0,421.0 491.0,420.0 496.0,422.0 497.0,423.0 495.0,426.0 491.0,429.0 488.0,434.0 482.0,436.0 479.0,440.0 474.0,443.0 472.0,444.0 474.0,443.0 476.0,441.0 482.0,440.0 484.0,439.0 487.0,437.0 491.0,436.0 495.0,439.0 495.0,440.0 493.0,443.0 490.0,449.0 485.0,452.0 483.0,454.0 484.0,454.0 488.0,453.0 494.0,452.0 502.0,453.0 504.0" style="fill:none;stroke:#5784ff;stroke-width:2"/>
<polyline points="347.0 531.0,347.0 534.0,346.0 538.0,346.0 544.0,345.0 549.0,345.0 554.0,346.0 560.0,350.0 554.0,351.0 551.0,352.0 549.0,356.0 544.0,357.0 541.0,360.0 537.0,363.0 534.0,363.0 537.0,362.0 544.0,361.0 548.0,360.0 554.0,359.0 556.0,357.0 561.0,356.0 565.0,360.0 561.0,361.0 558.0,365.0 553.0,366.0 551.0,370.0 547.0,374.0 545.0,375.0 548.0,375.0 552.0,374.0 558.0,373.0 561.0,372.0 567.0,371.0 575.0,372.0 577.0,375.0 577.0,377.0 576.0,382.0 571.0" style="fill:none;stroke:#5784ff;stroke-width:2"/>
<polyline points="416.0 528.0,415.0 530.0,415.0 535.0,414.0 544.0,414.0 548.0,415.0 551.0,417.0 548.0,418.0 546.0,423.0 537.0,427.0 532.0,429.0 529.0,432.0 525.0,434.0 523.0,435.0 526.0,435.0 531.0,433.0 542.0,432.0 546.0,430.0 553.0,429.0 556.0,428.0 562.0,430.0 563.0,432.0 558.0,434.0 556.0,438.0 550.0,440.0 548.0,442.0 545.0,446.0 542.0,448.0 540.0,449.0 544.0,448.0 550.0,447.0 554.0,448.0 557.0,450.0 554.0,453.0 551.0,455.0 550.0,457.0 552.0,460.0 556.0" style="fill:none;stroke:#5784ff;stroke-width:2"/>
<polyline points="497.0 521.0,495.0 523.0,494.0 525.0,492.0 530.0,491.0 532.0,490.0 536.0,489.0 538.0,488.0 541.0,487.0 543.0,490.0 540.0,494.0 534.0,496.0 532.0,499.0 527.0,500.0 525.0,502.0 523.0,506.0 521.0,506.0 525.0,505.0 534.0,504.0 538.0,501.0 548.0,500.0 552.0,500.0 556.0,504.0 551.0,506.0 548.0,510.0 543.0,511.0 541.0,513.0 539.0,514.0 537.0,517.0 534.0,518.0 536.0,517.0 542.0,516.0 544.0,515.0 550.0,514.0 553.0,516.0 552.0,518.0 550.0,521.0 546.0,523.0 544.0,527.0 541.0,529.0 542.0,529.0 546.0,528.0 551.0,527.0 553.0" style="fill:none;stroke:#5784ff;stroke-width:2"/>
<polyline points="439.0 597.0,439.0 602.0,438.0 610.0,438.0 616.0,439.0 619.0,440.0 617.0,443.0 612.0,445.0 610.0,446.0 607.0,449.0 602.0,451.0 598.0,453.0 596.0,454.0 594.0,455.0 597.0,455.0 600.0,454.0 605.0,454.0 608.0,453.0 613.0,452.0 615.0,452.0 618.0,456.0 614.0,457.0 612.0,464.0 600.0,466.0 597.0,469.0 599.0,470.0 603.0,470.0 609.0,471.0 614.0" style="fill:none;stroke:#5784ff;stroke-width:2"/>
<polyline points="498.0 579.0,497.0 583.0,496.0 588.0,495.0 590.0,495.0 593.0,494.0 597.0,493.0 602.0,496.0 601.0,499.0 598.0,500.0 596.0,504.0 591.0,505.0 589.0,508.0 587.0,510.0 588.0,510.0 591.0,509.0 595.0,509.0 600.0,508.0 603.0,507.0 609.0,507.0 612.0,510.0 610.0,512.0 609.0,513.0 607.0,516.0 602.0,518.0 599.0,520.0 597.0,523.0 593.0,525.0 592.0,527.0 590.0,527.0 596.0,526.0 601.0,525.0 603.0,524.0 607.0,523.0 613.0,526.0 613.0,529.0 614.0,530.0 618.0,531.0 619.0" style="fill:none;stroke:#5784ff;stroke-width:2"/>
<polyline points="565.0 579.0,564.0 583.0,563.0 586.0,562.0 588.0,564.0 589.0,565.0 587.0,567.0 584.0,569.0 583.0,570.0 581.0,573.0 578.0,574.0 576.0,576.0 574.0,577.0 579.0,576.0 582.0,575.0 589.0,574.0 592.0,573.0 597.0,574.0 600.0,577.0 598.0,581.0 592.0,583.0 590.0,584.0 588.0,588.0 584.0,589.0 582.0,591.0 581.0,592.0 585.0,592.0 590.0,593.0 596.0,594.0 599.0,597.0 600.0,600.0 597.0,609.0 589.0,611.0 593.0,612.0 596.0,613.0 600.0,615.0 603.0,617.0 605.0,620.0 607.0,623.0 607.0,626.0 606.0,627.0 605.0" style="fill:none;stroke:#5784ff;stroke-width:2"/>
<polyline points="-29.0 579.0,-28.0 582.0,-26.0 583.0,-24.0 585.0,-22.0 586.0,-17.0 587.0,-15.0 586.0,-12.0 585.0,-8.0 584.0,-6.0 582.0,-3.0 577.0,-3.0 573.0,-5.0 569.0,-7.0 567.0,-10.0 565.0,-14.0 563.0,-19.0 562.0,-24.0 562.0,-27.0 563.0,-29.0 564.0,-32.0 565.0,-34.0 567.0,-35.0 570.0,-35.0 574.0,-34.0 577.0,-33.0 579.0,-31.0 579.0" style="fill:none;stroke:#000000;stroke-width:2"/>
<polyline points="-29.0 526.0,-26.0 529.0,-23.0 530.0,-21.0 531.0,-17.0 532.0,-14.0 532.0,-10.0 531.0,-8.0 529.0,-7.0 525.0,-8.0 522.0,-11.0 518.0,-15.0 515.0,-18.0 514.0,-20.0 512.0,-22.0 511.0,-18.0 511.0,-2.0 510.0,2.0 508.0,5.0 506.0" style="fill:none;stroke:#000000;stroke-width:2"/>
<polyline points="-73.0 489.0,-69.0 491.0,-65.0 491.0,-62.0 492.0,-57.0 492.0,-38.0 491.0,-34.0 491.0,-31.0 490.0,-26.0 489.0,-21.0 489.0,-19.0 488.0,-16.0 487.0,-13.0 486.0" style="fill:none;stroke:#000000;stroke-width:2"/>
<polyline points="-30.0 501.0,-29.0 499.0,-28.0 494.0,-27.0 492.0,-27.0 489.0,-26.0 485.0,-26.0 483.0" style="fill:none;stroke:#000000;stroke-width:2"/>
<polyline points="-31.0 445.0,-29.0 444.0,-22.0 444.0,-16.0 445.0,-8.0 446.0,-3.0 447.0,5.0 449.0,15.0 452.0,18.0 453.0,22.0 454.0,17.0 454.0,8.0 452.0,4.0 451.0,-13.0 445.0,-17.0 443.0,-23.0 439.0,-25.0 437.0,-28.0 432.0,-29.0 430.0,-29.0 426.0,-28.0 421.0,-26.0 418.0,-24.0 419.0,-22.0 421.0,-20.0 424.0,-19.0 427.0,-20.0 428.0" style="fill:none;stroke:#000000;stroke-width:2"/>
<polyline points="-25.0 410.0,-22.0 411.0,-18.0 411.0,-13.0 412.0,-11.0 411.0,-8.0 411.0,-6.0 409.0,-6.0 403.0,-7.0 401.0,-11.0 395.0,-12.0 393.0,-15.0 389.0,-17.0 388.0,-19.0 386.0,-22.0 384.0,-24.0 383.0,-26.0 381.0,-23.0 383.0,-19.0 384.0,-16.0 384.0,-12.0 383.0" style="fill:none;stroke:#000000;stroke-width:2"/>
<polyline points="-57.0 365.0,-59.0 364.0,-61.0 362.0,-57.0 361.0,-53.0 361.0,-44.0 360.0,-40.0 360.0,-34.0 361.0,-30.0 361.0,-14.0 362.0" style="fill:none;stroke:#000000;stroke-width:2"/>
<polyline points="-35.0 367.0,-34.0 363.0,-34.0 359.0,-33.0 357.0,-31.0 352.0" style="fill:none;stroke:#000000;stroke-width:2"/>
<polyline points="-33.0 336.0,-34.0 339.0,-33.0 342.0,-29.0 343.0,-24.0 341.0,-19.0 338.0,-15.0 334.0,-12.0 330.0,-10.0 329.0,-9.0 333.0,-10.0 337.0,-12.0 342.0,-13.0 344.0,-11.0 344.0" style="fill:none;stroke:#000000;stroke-width:2"/>
<polyline points="179.0 156.0,179.0 160.0,178.0 163.0,178.0 167.0,177.0 173.0,177.0 175.0" style="fill:none;stroke:#000000;stroke-width:2"/>
<polyline points="193.0 156.0,193.0 159.0,194.0 171.0,197.0 169.0,200.0 165.0,202.0 163.0,205.0 162.0,206.0 165.0,207.0 171.0,208.0 174.0" style="fill:none;stroke:#000000;stroke-width:2"/>
<polyline points="221.0 160.0,221.0 164.0,220.0 173.0,220.0 176.0,219.0 179.0,219.0 182.0,218.0 187.0,218.0 191.0,219.0 184.0,220.0 178.0,221.0 175.0,222.0 168.0,223.0 165.0,226.0 159.0,228.0 157.0,231.0 155.0,235.0 155.0,234.0 160.0,232.0 163.0,229.0 165.0,227.0 167.0" style="fill:none;stroke:#000000;stroke-width:2"/>
<polyline points="242.0 159.0,241.0 162.0,241.0 165.0,242.0 171.0,245.0 172.0,248.0 170.0,250.0 169.0,253.0 165.0,255.0 163.0,256.0 161.0,256.0 164.0,257.0 167.0,258.0 171.0,260.0 171.0" style="fill:none;stroke:#000000;stroke-width:2"/>
<polyline points="273.0 130.0,273.0 137.0,274.0 164.0,273.0 167.0" style="fill:none;stroke:#000000;stroke-width:2"/>
<polyline points="268.0 156.0,271.0 158.0,273.0 159.0,276.0 159.0,287.0 158.0,291.0 156.0,292.0 153.0,290.0 151.0,288.0 150.0,285.0 150.0,287.0 156.0,289.0 158.0,293.0 163.0,297.0 166.0,301.0 170.0,303.0 174.0,301.0 177.0,296.0 178.0,290.0 178.0,287.0 177.0,285.0 175.0" style="fill:none;stroke:#000000;stroke-width:2"/>
<polyline points="89.0 422.0,87.0 426.0,86.0 430.0,85.0 432.0,87.0 431.0,89.0 429.0,91.0 426.0,93.0 424.0,96.0 420.0,97.0 418.0,99.0 415.0,100.0 413.0,98.0 419.0,97.0 421.0,93.0 430.0,91.0 435.0,90.0 437.0,89.0 441.0,92.0 442.0,97.0 437.0,98.0 434.0,103.0 429.0,105.0 426.0,110.0 417.0,112.0 415.0,115.0 411.0,115.0 414.0,114.0 417.0,112.0 422.0,111.0 424.0,110.0 427.0,108.0 432.0,107.0 436.0,109.0 437.0,112.0 434.0,116.0 428.0,119.0 425.0,121.0 422.0,126.0 415.0,128.0 412.0,130.0 410.0,133.0 406.0,136.0 404.0,135.0 407.0,134.0 412.0,132.0 418.0,130.0 425.0,127.0 431.0,125.0 437.0,124.0 439.0,126.0 438.0,128.0 434.0,130.0 432.0,131.0 429.0,133.0 427.0,136.0 422.0,138.0 420.0,140.0 416.0,143.0 414.0,144.0 417.0,143.0 423.0,143.0 428.0,145.0 430.0,153.0 423.0,156.0 426.0,158.0 430.0,159.0 433.0,160.0 435.0,161.0 436.0" style="fill:none;stroke:#ff5959;stroke-width:2"/>
<polyline points="191.0 466.0,193.0 464.0,193.0 467.0,192.0 469.0,191.0 476.0,190.0 479.0,190.0 484.0,189.0 487.0,189.0 491.0,190.0 497.0,192.0 496.0,197.0 492.0,199.0 490.0,200.0 488.0,204.0 483.0,206.0 481.0,209.0 476.0,210.0 474.0,212.0 471.0,212.0 476.0,211.0 479.0,206.0 496.0,206.0 500.0,207.0 503.0,210.0 503.0,215.0 500.0,218.0 498.0,223.0 493.0,225.0 490.0,227.0 488.0,232.0 482.0,234.0 480.0,234.0 484.0,233.0 486.0,231.0 491.0,230.0 494.0,227.0 500.0,225.0 505.0,224.0 508.0,225.0 510.0,228.0 510.0,231.0 508.0,234.0 505.0,239.0 501.0,241.0 500.0,244.0 500.0,245.0 503.0,245.0 507.0,246.0 511.0,248.0 512.0,249.0 513.0" style="fill:none;stroke:#ff5959;stroke-width:2"/>
<polyline points="270.0 527.0,270.0 531.0,269.0 533.0,269.0 537.0,273.0 535.0,275.0 533.0,276.0 539.0,276.0 542.0,274.0 547.0,273.0 552.0,272.0 555.0,272.0 560.0,275.0 559.0,278.0 557.0,280.0 555.0,281.0 553.0,285.0 548.0,287.0 545.0,289.0 543.0,290.0 541.0,293.0 538.0,294.0 536.0,294.0 543.0,293.0 546.0,291.0 549.0,289.0 555.0,287.0 559.0,283.0 566.0,282.0 568.0,282.0 571.0,284.0 569.0,286.0 568.0,288.0 566.0,292.0 561.0,295.0 559.0,297.0 556.0,302.0 551.0,309.0 546.0,309.0 550.0,308.0 552.0,307.0 555.0,302.0 568.0,301.0 570.0,300.0 573.0,304.0 573.0,306.0 571.0,316.0 563.0,318.0 565.0,318.0 568.0,319.0 573.0,320.0 577.0,321.0 580.0,323.0 582.0" style="fill:none;stroke:#ff5959;stroke-width:2"/>
<polyline points="345.0 584.0,344.0 588.0,343.0 591.0,341.0 595.0,340.0 598.0,339.0 600.0,341.0 601.0,346.0 597.0,348.0 595.0,353.0 591.0,355.0 589.0,357.0 586.0,359.0 584.0,363.0 581.0,366.0 580.0,367.0 582.0,366.0 584.0,365.0 588.0,363.0 591.0,360.0 597.0,359.0 600.0,356.0 606.0,355.0 610.0,354.0 612.0,356.0 614.0,359.0 612.0,361.0 611.0,363.0 609.0,368.0 605.0,369.0 603.0,371.0 602.0,372.0 607.0,371.0 609.0,370.0 613.0,369.0 615.0,367.0 621.0,370.0 622.0,373.0 620.0,378.0 616.0,382.0 612.0,388.0 608.0,390.0 606.0,391.0 611.0,389.0 616.0,388.0 618.0,389.0 622.0,391.0 621.0,396.0 618.0,398.0 616.0,401.0 614.0,404.0 613.0,403.0 618.0,402.0 619.0" style="fill:none;stroke:#ff5959;stroke-width:2"/>
<polyline points="106.0 587.2,104.7 591.2,102.0 597.9,102.0 600.5,100.7 603.2,98.0 611.2,95.4 617.8,95.4 620.5,98.0 619.2,100.7 616.5,102.0 613.8,107.4 605.8,108.7 603.2,110.0 599.2,112.7 596.5,112.7 599.2,110.0 607.2,110.0 609.8,107.4 616.5,106.0 619.2,106.0 624.5,108.7 625.8,114.0 620.5,115.3 616.5,120.7 611.2,122.0 608.5,126.0 603.2,128.7 600.5,128.7 603.2,127.3 611.2,126.0 613.8,124.7 617.8,124.7 621.8,128.7 617.8,132.6 612.5,136.6 605.8,139.3 601.9,144.6 595.2,147.3 592.5,151.3 591.2,151.3 593.9,148.6 600.5,147.3 604.5,144.6 611.2,143.3 615.2,142.0 620.5,140.6 623.1,144.6 619.2,147.3 615.2,151.3 608.5,152.6 605.8,156.6 601.9,160.6 600.5,160.6 604.5,159.3 607.2,159.3 612.5,157.9 617.8,157.9 620.5,161.9 615.2,165.9 611.2,169.9 608.5,171.2 612.5,171.2 615.2,172.6 620.5" style="fill:none;stroke:#ff5959;stroke-width:2"/>
<polyline points="368.2 648.4,366.9 652.4,366.9 657.8,368.2 660.4,368.2 663.1,369.6 672.4,369.6 675.1" style="fill:none;stroke:#ff5959;stroke-width:2"/>
<polyline points="370.9 664.4,373.6 665.7,376.2 665.7,380.2 667.1,384.2 667.1,394.9 668.4,397.5 668.4,404.2 669.7,406.8 669.7,434.8 668.4,437.4 668.4,452.1 667.1,454.7 667.1,472.1 665.7,474.7 665.7,480.0 664.4,482.7 663.1,485.4 663.1,488.0 661.7,490.7 661.7,520.0 660.4,524.0 660.4,543.9 659.1,546.6 659.1,554.6 657.8,557.2 657.8,562.6 656.4,565.2 656.4,571.9 655.1,574.5 655.1,585.2 653.8,587.8 653.8,590.5 652.4,593.2 652.4,598.5 653.8" style="fill:none;stroke:#ff5959;stroke-width:2"/>
<polyline points="598.5 635.1,598.5 637.8,599.8 640.5,601.2 644.4,602.5 649.8,602.5 652.4,603.8 668.4" style="fill:none;stroke:#ff5959;stroke-width:2"/>
<polyline points="361.6 652.4,361.6 655.1,362.9 675.1,362.9 677.7,364.2 684.4" style="fill:none;stroke:#ff5959;stroke-width:2"/>
<polyline points="361.6 668.4,350.9 669.7,345.6 669.7,341.6 671.1,335.0 672.4,329.6 673.7,325.6 675.1,321.6 675.1,315.0 676.4,311.0 676.4,284.4 677.7,279.1 677.7,271.1 679.1,267.1 679.1,253.8 677.7,251.1 677.7,244.5 676.4,240.5 676.4,236.5 675.1,233.8 675.1,231.1 673.7,227.1 673.7,221.8 672.4,219.2 672.4,199.2 671.1,195.2 671.1,156.6 669.7,153.9 669.7,151.3 669.7" style="fill:none;stroke:#ff5959;stroke-width:2"/>
<polyline points="147.3 652.4,148.6 656.4,148.6 659.1,150.0 665.7,150.0 668.4,151.3 677.7,151.3 680.4,152.6 685.7,152.6 688.4,153.9 695.0,156.6 695.0" style="fill:none;stroke:#ff5959;stroke-width:2"/>
<polyline points="253.8 737.6,255.1 733.6,257.8 731.0,259.1 727.0,261.8 721.6,261.8 719.0,263.1 715.0,263.1 712.3,264.4 709.7,264.4 707.0,261.8 707.0,259.1 709.7,257.8 712.3,256.4 716.3,255.1 721.6,253.8 729.6,253.8 736.3,255.1 742.9,255.1 745.6,257.8 748.3,263.1 750.9,265.7 750.9,268.4 748.3" style="fill:none;stroke:#ff5959;stroke-width:2"/>
<polyline points="472.1 716.3,473.4 713.7,476.0 709.7,477.4 705.7,478.7 703.0,481.4 693.7,481.4 691.0,480.0 687.0,478.7 689.7,476.0 696.4,473.4 700.3,472.1 704.3,472.1 707.0,470.7 709.7,470.7 712.3,472.1 716.3,473.4 723.0,474.7 727.0,477.4 729.6,481.4 731.0" style="fill:none;stroke:#ff5959;stroke-width:2"/>
<polyline points="277.7 793.5,272.4 794.8,269.7 797.5,268.4 801.5,271.1 804.2,275.1 805.5,277.7 805.5,283.1 806.8,280.4 809.5,276.4 812.2,273.7 813.5,271.1 813.5" style="fill:none;stroke:#000000;stroke-width:2"/>
<polyline points="300.4 768.2,299.0 773.6,300.4 777.5,300.4 782.9,301.7 794.8,301.7 797.5,303.0 804.2,303.0 806.8,301.7 804.2,300.4 800.2,297.7 796.2,297.7 793.5,300.4 790.9,304.3 789.5,307.0 789.5" style="fill:none;stroke:#000000;stroke-width:2"/>
<polyline points="311.0 786.9,311.0 789.5,312.3 793.5,312.3 796.2,313.7 800.2,313.7 802.8,316.3 802.8,317.7 800.2,320.3 796.2,323.0 793.5,325.6 793.5" style="fill:none;stroke:#000000;stroke-width:2"/>
<polyline points="335.0 793.5,335.0 796.2,336.3 800.2,336.3 802.8,337.6 805.5" style="fill:none;stroke:#000000;stroke-width:2"/>
<polyline points="353.6 789.5,348.3 790.9,345.6 793.5,344.3 797.5,344.3 801.5,345.6 809.5,349.6 810.8,352.3 805.5,356.3 798.8,357.6 796.2,358.9 789.5,360.2 786.9,360.2 781.5,358.9 766.9,357.6 770.9,357.6 777.5,358.9 786.9,358.9 789.5,360.2 794.8,361.6 797.5,362.9 798.8" style="fill:none;stroke:#000000;stroke-width:2"/>
<polyline points="370.9 796.2,370.9 792.2,372.2 789.5,373.6 784.2,370.9 785.5,368.2 789.5,366.9 792.2,366.9 797.5,368.2 805.5,369.6 808.2,372.2 810.8,374.9 812.2,377.6 812.2,380.2 809.5" style="fill:none;stroke:#000000;stroke-width:2"/>
<polyline points="388.2 794.8,382.9 796.2,381.5 798.8,380.2 804.2,380.2 808.2,382.9 810.8,386.9 808.2,386.9 805.5,390.9 800.2,392.2 797.5,396.2 785.5,396.2 782.9,394.9 769.6,393.5 773.6,393.5 777.5,394.9 784.2,394.9 786.9,396.2 794.8,397.5 797.5,398.8 802.8,400.2 805.5,405.5 810.8" style="fill:none;stroke:#000000;stroke-width:2"/>
<polyline points="898.0 163.0,899.0 166.9,900.0 168.9,901.0 172.9,902.0 174.8" style="fill:none;stroke:#000000;stroke-width:2"/>
<polyline points="908.9 153.1,909.9 156.1,910.9 158.1,910.9 162.0,911.8 164.0,911.8 167.9,914.8 166.9,915.8 165.0,916.8 162.0,919.7 163.0,921.7 166.0,924.7 169.9,925.6 170.9" style="fill:none;stroke:#000000;stroke-width:2"/>
<polyline points="937.5 159.1,938.5 164.0,940.4 170.9,941.4 174.8,942.4 180.7,940.4 179.7,939.4 177.8,937.5 171.9,937.5 166.9,938.5 156.1,939.4 154.1,941.4 152.2,943.4 151.2,946.3 152.2,945.3 154.1,943.4 157.1" style="fill:none;stroke:#000000;stroke-width:2"/>
<polyline points="956.2 158.1,956.2 162.0,957.2 164.0,959.1 166.0,961.1 163.0,962.1 160.0,964.1 158.1,968.0 164.0,969.0 166.9,970.0 167.9" style="fill:none;stroke:#000000;stroke-width:2"/>
<polyline points="980.8 134.4,980.8 137.4,981.8 154.1,982.8 160.0,983.8 164.0" style="fill:none;stroke:#000000;stroke-width:2"/>
<polyline points="979.8 148.2,980.8 150.2,982.8 152.2,984.8 153.1,987.7 154.1,991.7 155.1,993.6 155.1" style="fill:none;stroke:#000000;stroke-width:2"/>
<polyline points="1000.5 147.2,997.6 146.2,996.6 149.2,997.6 151.2,999.5 154.1,1003.5 158.1,1005.5 159.1,1008.4 161.0,1010.4 162.0,1013.3 163.0,1015.3 165.0,1009.4 166.0,1004.5 166.0,1001.5 165.0" style="fill:none;stroke:#000000;stroke-width:2"/>
<polyline points="936.5 202.4,936.5 206.4,937.5 208.3,937.5 211.3,938.5 214.2,939.4 222.1,939.4 225.1,940.4 231.0,941.4 234.9,941.4 237.9,942.4 245.8,942.4 249.7,943.4 262.5,943.4 266.5,944.4 306.9,944.4 310.8,945.3 337.4,945.3 341.4,946.3 361.1,946.3 365.0,947.3 373.9,948.3 377.8,948.3 382.7,949.3 391.6,949.3 395.6,950.3 497.0,951.3 503.0,951.3 508.9,952.2 522.7,953.2 529.6,954.2 535.5,954.2 541.4,955.2 543.4,955.2 547.3,956.2 553.2,956.2 557.2,957.2 565.0,957.2 569.0,958.2 575.9,959.1 580.8,959.1 583.8,960.1 586.7,960.1 589.7,961.1 596.6,961.1 602.5,962.1 611.4,962.1 614.3,962.1 620.2" style="fill:none;stroke:#000000;stroke-width:2"/>
<polyline points="1011.4 209.3,1010.4 212.3,1011.4 215.2,1012.4 222.1,1013.3 227.0,1015.3 234.9,1016.3 240.8,1017.3 244.8,1018.3 250.7,1018.3 254.6,1019.3 261.5,1019.3 264.5,1020.2 366.0,1019.3 418.2,1019.3 421.2,1018.3 439.9,1018.3 442.9,1017.3 452.7,1017.3 455.7,1018.3 485.2,1018.3 488.2,1019.3 505.9,1019.3 508.9,1020.2 526.6,1021.2 532.5,1021.2 535.5,1022.2 539.4,1024.2 548.3,1025.2 552.2,1025.2 556.2,1026.2 558.1,1027.1 563.1,1028.1 567.0,1029.1 571.9,1030.1 574.9,1030.1 578.8,1031.1 581.8,1032.1 585.7,1033.0 592.6,1034.0 596.6,1034.0 599.5,1035.0 612.3,1035.0 616.3,1036.0 620.2,1037.0 627.1,1037.0 631.1" style="fill:none;stroke:#000000;stroke-width:2"/>
<polyline points="1095.1 216.2,1095.1 220.2,1096.1 243.8,1096.1 247.7,1097.1 261.5,1097.1 266.5,1096.1 300.0,1096.1 306.9,1095.1 341.4,1095.1 347.3,1094.1 380.8,1094.1 385.7,1096.1 473.4,1096.1 481.3,1097.1 485.2,1097.1 492.1,1098.1 496.1,1098.1 500.0,1097.1 537.5,1097.1 540.4,1098.1 572.9,1098.1 578.8,1099.1 600.5,1099.1 604.5,1100.1 606.4,1100.1 609.4,1101.0 611.4,1101.0 616.3,1102.0 622.2,1102.0 626.1,1103.0 627.1" style="fill:none;stroke:#000000;stroke-width:2"/>
<polyline points="1175.9 216.2,1174.9 219.2,1174.0 221.1,1174.0 226.1,1173.0 326.6,1172.0 331.5,1172.0 340.4,1173.0 396.5,1173.0 401.5,1174.0 443.8,1174.0 448.8,1174.9 475.4,1174.9 479.3,1174.0 527.6,1174.0 534.5,1174.0 627.1" style="fill:none;stroke:#000000;stroke-width:2"/>
<polyline points="1242.0 217.2,1242.9 221.1,1242.9 224.1,1243.9 258.6,1243.9 262.5,1244.9 275.3,1244.9 279.3,1245.9 293.1,1245.9 298.0,1244.9 316.7,1244.9 326.6,1243.9 340.4,1243.9 345.3,1242.9 349.2,1242.9 359.1,1242.0 364.0,1242.0 368.9,1241.0 378.8,1241.0 383.7,1240.0 397.5,1240.0 406.4,1239.0 436.9,1239.0 441.9,1240.0 543.4,1241.0 561.1,1240.0 563.1,1240.0 567.0,1239.0 582.8,1239.0 587.7,1238.0 626.1,1237.0 627.1" style="fill:none;stroke:#000000;stroke-width:2"/>
<polyline points="1309.0 222.1,1307.0 225.1,1306.0 229.0,1305.0 231.0,1305.0 234.9,1304.0 236.9,1304.0 239.9,1305.0 266.5,1305.0 275.3,1306.0 289.1,1306.0 293.1,1307.0 311.8,1307.0 320.7,1306.0 366.0,1306.0 370.9,1305.0 379.8,1305.0 384.7,1306.0 418.2,1306.0 422.2,1307.0 431.0,1307.0 435.0,1306.0 471.4,1306.0 475.4,1305.0 488.2,1305.0 492.1,1304.0 498.0,1304.0 503.9,1303.1 514.8,1303.1 517.7,1302.1 532.5,1302.1 537.5,1303.1 573.9,1303.1 577.9,1304.0 585.7,1305.0 590.7,1305.0 594.6,1306.0 616.3,1306.0 619.2,1305.0 624.2,1305.0 628.1" style="fill:none;stroke:#000000;stroke-width:2"/>
<polyline points="897.1 216.2,895.1 217.2,894.1 219.2,892.1 222.1,891.2 225.1,894.1 224.1,896.1 222.1,898.0 221.1,897.1 224.1,895.1 228.0,893.1 231.0,892.1 233.0,889.2 237.9,888.2 239.9,887.2 243.8,891.2 243.8,897.1 239.9,910.9 229.0,912.8 228.0,914.8 226.1,916.8 225.1,914.8 229.0,912.8 232.0,907.9 238.9,905.9 241.8,904.0 245.8,902.0 248.7,899.0 252.7,898.0 254.6,900.0 257.6,904.9 256.6,906.9 254.6,909.9 253.7,915.8 250.7,918.7 248.7,920.7 246.8,922.7 245.8,927.6 242.8,926.6 245.8,925.6 247.7,924.7 253.7" style="fill:none;stroke:#5784ff;stroke-width:2"/>
<polyline points="891.2 292.1,893.1 288.1,895.1 286.2,895.1 290.1,894.1 298.0,894.1 301.0,893.1 302.9,893.1 305.9,897.1 303.9,901.0 300.0,903.0 299.0,905.9 296.0,904.9 299.0,901.0 307.9,898.0 313.8,894.1 320.7,896.1 322.6,900.0 320.7,903.0 318.7,907.9 313.8,918.7 303.9,920.7 301.9,924.7 299.0,926.6 297.0,925.6 299.0,919.7 311.8,918.7 313.8,918.7 316.7,920.7 318.7,921.7 319.7" style="fill:none;stroke:#5784ff;stroke-width:2"/>
<polyline points="965.1 297.0,964.1 301.0,963.1 303.9,962.1 309.8,961.1 312.8,962.1 314.7,964.1 312.8,971.0 306.9,972.0 304.9,973.9 303.9,975.9 301.9,974.9 303.9,968.0 315.7,967.0 319.7,966.0 322.6,971.0 321.6,973.9 319.7,975.9 317.7,981.8 312.8,983.8 310.8,985.7 309.8,987.7 307.9,989.7 310.8,988.7 315.7,987.7 317.7,987.7 322.6,988.7 325.6,990.7 327.6" style="fill:none;stroke:#5784ff;stroke-width:2"/>
<polyline points="1042.9 366.0,1039.9 367.0,1037.0 369.9,1034.0 373.9,1032.1 376.8,1031.1 378.8,1030.1 381.8,1034.0 381.8,1039.0 378.8,1040.9 377.8,1041.9 375.8,1045.9 373.9,1049.8 373.9,1048.8 376.8,1047.8 378.8,1044.9 383.7,1042.9 387.7,1041.9 390.6,1043.9 394.6,1048.8 393.6,1054.7 390.6,1060.6 388.7,1065.6 386.7,1066.6 390.6,1065.6 395.6,1064.6 399.5,1064.6 402.5,1067.5 404.4,1073.5 403.4,1075.4 402.5,1081.3 400.5,1089.2 397.5,1092.2 397.5,1097.1 398.5,1098.1 400.5,1098.1 403.4,1096.1 407.4,1094.1 410.3" style="fill:none;stroke:#5784ff;stroke-width:2"/>
<polyline points="901.0 356.1,901.0 359.1,899.0 363.0,898.0 368.0,899.0 369.9,904.0 368.9,908.9 366.0,909.9 364.0,913.8 361.1,916.8 359.1,920.7 358.1,920.7 361.1,919.7 365.0,917.8 368.0,915.8 373.9,912.8 381.8,911.8 383.7,910.9 386.7,914.8 385.7,918.7 381.8,920.7 380.8,922.7 378.8,926.6 375.8,928.6 373.9,930.6 372.9,929.6 378.8,928.6 380.8,927.6 384.7,927.6 389.6,928.6 392.6,931.6 394.6" style="fill:none;stroke:#5784ff;stroke-width:2"/>
<polyline points="974.9 369.9,973.9 372.9,972.0 377.8,971.0 379.8,969.0 384.7,969.0 387.7,972.0 387.7,974.9 385.7,977.9 382.7,982.8 378.8,984.8 376.8,986.7 375.8,989.7 375.8,988.7 381.8,987.7 385.7,987.7 388.7,988.7 391.6,991.7 392.6,993.6 391.6,998.6 388.7,1000.5 386.7,1003.5 385.7,1004.5 387.7,1004.5 391.6,1004.5 393.6" style="fill:none;stroke:#5784ff;stroke-width:2"/>
<polyline points="886.2 467.5,887.2 469.5,890.2 470.4,896.1 470.4,898.0 471.4,904.9 472.4,907.9 472.4,913.8 473.4,916.8 474.4,924.7 474.4,943.4 475.4,947.3 475.4,975.9 476.4,979.8 476.4,989.7 477.3,994.6 477.3,1008.4 478.3,1013.3 479.3,1018.3 479.3,1027.1 480.3,1031.1 481.3,1042.9 482.3,1046.8 483.3,1053.7 484.2,1057.7 484.2,1064.6 485.2,1067.5 485.2,1070.5 486.2,1077.4 486.2,1083.3 487.2,1088.2 487.2,1094.1 488.2,1098.1 489.2,1101.0 490.2,1107.0 490.2,1110.9 489.2,1114.8 489.2,1122.7 488.2,1129.6 487.2,1132.6 487.2,1137.5 486.2,1140.5 486.2,1151.3 485.2,1154.3 485.2,1164.1 484.2,1167.1 484.2,1215.3 485.2,1218.3 485.2,1232.1 484.2,1240.0 484.2,1249.8 483.3,1254.8 483.3,1259.7 482.3,1264.6 482.3,1269.5 481.3,1274.5 481.3,1277.4 480.3,1285.3 480.3,1287.3 479.3,1290.2 479.3,1325.7 478.3,1328.7 478.3,1338.5 477.3,1343.5 477.3,1358.2 476.4,1362.2 476.4,1369.1 475.4,1373.0 474.4,1375.0 474.4" style="fill:none;stroke:#000000;stroke-width:2"/>
<polyline points="891.2 393.6,893.1 396.5,895.1 397.5,901.0 397.5,903.0 398.5,905.9 398.5,911.8 399.5,914.8 400.5,921.7 401.5,925.6 401.5,929.6 402.5,938.5 403.4,943.4 404.4,952.2 405.4,957.2 405.4,967.0 406.4,972.0 407.4,976.9 407.4,991.7 408.4,996.6 409.3,1006.4 410.3,1010.4 411.3,1019.3 412.3,1024.2 413.3,1032.1 415.3,1037.0 416.2,1044.9 417.2,1048.8 417.2,1052.8 418.2,1060.6 419.2,1064.6 420.2,1068.5 420.2,1076.4 421.2,1080.3 422.2,1084.3 422.2,1092.2 423.1,1096.1 423.1,1103.0 424.1,1106.0 425.1,1112.9 425.1,1116.8 426.1,1119.8 426.1,1126.7 427.1,1130.6 427.1,1165.1 428.1,1169.0 428.1,1181.8 429.1,1184.8 429.1,1204.5 430.0,1207.5 430.0,1215.3 429.1,1218.3 429.1,1273.5 428.1,1276.4 428.1,1309.9 427.1,1313.9 426.1,1319.8 424.1,1323.7 423.1,1328.7 422.2,1332.6 421.2,1337.5 420.2,1341.5 419.2,1346.4 418.2,1349.4 418.2,1351.3 417.2,1355.3 417.2,1358.2 416.2,1362.2 416.2,1367.1 415.3,1371.0 415.3,1372.0 414.3" style="fill:none;stroke:#000000;stroke-width:2"/>
<polyline points="883.3 333.5,887.2 333.5,895.1 334.5,902.0 335.4,904.0 336.4,906.9 336.4,909.9 337.4,915.8 338.4,919.7 338.4,922.7 339.4,931.6 340.4,935.5 341.4,944.4 342.3,949.3 343.3,958.2 344.3,968.0 346.3,972.9 346.3,977.9 347.3,982.8 347.3,987.7 348.3,997.6 349.2,1002.5 350.2,1012.4 351.2,1017.3 351.2,1027.1 352.2,1031.1 353.2,1039.9 354.2,1044.9 355.2,1052.8 356.1,1056.7 357.1,1061.6 358.1,1069.5 359.1,1073.5 360.1,1077.4 360.1,1082.3 361.1,1090.2 362.0,1094.1 363.0,1103.0 364.0,1107.0 364.0,1115.8 365.0,1119.8 365.0,1222.2 366.0,1310.9 363.0,1313.9 363.0,1322.8 362.0,1325.7 362.0,1332.6 361.1,1337.5 361.1,1339.5 359.1,1343.5 358.1,1345.4 356.1,1348.4 355.2,1350.3 354.2,1353.3 353.2,1356.3 353.2,1359.2 352.2,1364.1 351.2,1367.1 350.2,1371.0 349.2,1374.0 348.3" style="fill:none;stroke:#000000;stroke-width:2"/>
<polyline points="873.4 261.5,879.3 262.5,882.3 262.5,886.2 263.5,892.1 264.5,895.1 264.5,897.1 265.5,900.0 265.5,905.9 266.5,908.9 266.5,924.7 267.5,927.6 267.5,931.6 268.4,937.5 269.4,940.4 269.4,944.4 270.4,950.3 271.4,953.2 272.4,957.2 272.4,964.1 273.4,967.0 274.3,973.9 275.3,983.8 276.3,987.7 277.3,994.6 277.3,998.6 278.3,1001.5 278.3,1009.4 279.3,1013.3 279.3,1025.2 280.3,1029.1 280.3,1036.0 281.2,1039.9 281.2,1058.7 282.2,1062.6 282.2,1077.4 283.2,1081.3 283.2,1092.2 284.2,1095.1 284.2,1102.0 285.2,1105.0 285.2,1111.9 286.2,1114.8 286.2,1121.7 287.2,1124.7 287.2,1134.5 288.1,1138.5 288.1,1180.9 287.2,1188.7 287.2,1197.6 286.2,1206.5 286.2,1211.4 285.2,1216.3 285.2,1225.2 284.2,1230.1 284.2,1240.0 283.2,1243.9 283.2,1252.8 282.2,1256.7 282.2,1268.6 281.2,1272.5 281.2,1286.3 280.3,1292.2 280.3,1308.0 279.3,1310.9 279.3,1317.8 278.3,1319.8 277.3,1322.8 277.3,1327.7 276.3,1332.6 276.3,1335.6 275.3,1340.5 273.4,1343.5 272.4,1348.4 270.4,1353.3 269.4,1356.3 269.4,1359.2 268.4,1363.2 267.5,1366.1 266.5,1371.0 265.5" style="fill:none;stroke:#000000;stroke-width:2"/>
<polyline points="892.1 609.4,892.1 613.3,891.2 616.3,890.2 618.3,890.2 623.2,889.2 626.1,889.2 629.1,888.2 634.0,888.2 637.0,889.2 643.9,893.1 644.9,897.1 642.9,900.0 642.9,903.0 641.9,909.9 640.9,914.8 639.9,922.7 638.9,928.6 638.0,931.6 638.0,948.3 637.0,951.3 637.0,1002.5 638.0,1005.5 638.0,1014.3 638.9,1018.3 638.9,1028.1 639.9,1035.0 639.9,1037.0 640.9,1041.9 640.9,1043.9 641.9,1048.8 642.9,1053.7 642.9,1056.7 643.9,1061.6 643.9,1064.6 644.9,1067.5 644.9,1074.4 645.8,1077.4 645.8,1086.3 646.8,1092.2 646.8,1101.0 647.8,1107.9 648.8,1112.9 649.8,1115.8 650.8,1120.8 650.8,1123.7 651.8,1128.6 651.8,1131.6 652.7,1137.5 652.7,1140.5 653.7,1145.4 653.7,1156.2 654.7,1159.2 654.7,1166.1 655.7,1169.0 655.7,1210.4 654.7,1217.3 654.7,1256.7 653.7,1262.6 653.7,1266.6 652.7,1270.5 652.7,1278.4 651.8,1283.3 651.8,1303.1 652.7,1306.0 652.7,1336.6 653.7,1340.5 652.7,1343.5 652.7,1358.2 651.8,1362.2 651.8,1366.1 650.8,1369.1 649.8,1373.0 649.8,1380.9 647.8,1380.9 644.9,1379.9 642.9,1378.9 638.9,1378.9 635.0,1377.9 620.2,1377.0 618.3,1376.0 614.3" style="fill:none;stroke:#000000;stroke-width:2"/>
<polyline points="962.1 615.3,962.1 619.2,963.1 622.2,963.1 625.2,964.1 631.1,965.1 634.0,967.0 636.0" style="fill:none;stroke:#000000;stroke-width:2"/>
<polyline points="1035.0 626.1,1036.0 628.1,1038.0 634.0,1039.0 636.0,1039.9 638.9" style="fill:none;stroke:#000000;stroke-width:2"/>
<polyline points="1104.0 623.2,1104.0 627.1,1105.0 631.1,1105.0 634.0,1106.0 647.8,1106.0 650.8,1107.0 652.7,1107.9 655.7,1108.9 659.6" style="fill:none;stroke:#000000;stroke-width:2"/>
<polyline points="1174.9 623.2,1174.9 627.1,1175.9 631.1,1175.9 634.0,1176.9 638.9,1176.9 643.9,1177.9 648.8,1178.9 651.8,1179.9 654.7" style="fill:none;stroke:#000000;stroke-width:2"/>
<polyline points="1238.0 625.2,1238.0 629.1,1239.0 640.9,1239.0 644.9,1240.0 648.8,1240.0 652.7,1241.0 655.7,1241.0 659.6" style="fill:none;stroke:#000000;stroke-width:2"/>
<polyline points="1305.0 626.1,1304.0 629.1,1304.0 635.0,1305.0 638.9,1306.0 643.9,1307.0 651.8" style="fill:none;stroke:#000000;stroke-width:2"/>
<polyline points="895.1 597.6,894.1 594.6,897.1 595.6,902.0 595.6,910.9 596.6,914.8 596.6,959.1 595.6,963.1 595.6,971.0 596.6,974.9 596.6,986.7 597.6,994.6 597.6,1003.5 598.5,1011.4 598.5,1020.2 599.5,1028.1 599.5,1032.1 600.5,1036.0 600.5,1043.9 601.5,1047.8 601.5,1055.7 602.5,1059.7 602.5,1114.8 601.5,1122.7 601.5,1137.5 600.5,1141.4 600.5,1148.3 601.5,1151.3 601.5,1174.0 602.5,1177.9 602.5,1193.7 601.5,1197.6 601.5,1221.3 602.5,1227.2 602.5,1256.7 603.5,1261.7 603.5,1288.3 604.5,1291.2 604.5,1317.8 605.4,1321.8 605.4,1324.7 604.5,1327.7 604.5,1339.5 603.5,1343.5 603.5,1377.0 603.5" style="fill:none;stroke:#000000;stroke-width:2"/>
<polyline points="890.2 528.6,893.1 529.6,897.1 531.5,901.0 531.5,904.9 532.5,909.9 532.5,919.7 533.5,923.7 533.5,925.6 534.5,928.6 534.5,930.6 535.5,936.5 535.5,938.5 536.5,942.4 536.5,948.3 537.5,954.2 537.5,971.0 538.4,976.9 539.4,980.8 539.4,984.8 540.4,991.7 540.4,1001.5 541.4,1004.5 541.4,1040.9 542.4,1045.9 542.4,1089.2 541.4,1092.2 541.4,1107.9 540.4,1110.9 540.4,1116.8 539.4,1119.8 539.4,1128.6 538.4,1131.6 538.4,1144.4 537.5,1147.4 537.5,1162.1 536.5,1168.0 536.5,1184.8 535.5,1190.7 535.5,1218.3 536.5,1223.2 536.5,1260.7 535.5,1264.6 535.5,1300.1 534.5,1304.0 534.5,1339.5 533.5,1344.4 533.5,1350.3 534.5,1354.3 534.5,1365.1 535.5,1369.1 535.5,1372.0 536.5,1375.0 537.5" style="fill:none;stroke:#000000;stroke-width:2"/>
<polyline points="1122.7 440.9,1121.7 442.9,1118.8 447.8,1117.8 450.7,1115.8 454.7,1114.8 458.6,1116.8 460.6,1119.8 460.6,1124.7 457.6,1126.7 456.6,1128.6 454.7,1133.6 450.7,1136.5 447.8,1138.5 446.8,1137.5 448.8,1134.5 455.7,1132.6 457.6,1131.6 460.6,1128.6 465.5,1127.6 467.5,1125.7 473.4,1131.6 471.4,1133.6 470.4,1135.5 468.5,1140.5 464.5,1143.4 462.6,1145.4 460.6,1150.3 457.6,1154.3 454.7,1153.3 458.6,1152.3 460.6,1150.3 465.5,1148.3 469.5,1152.3 468.5,1155.2 466.5,1157.2 464.5,1159.2 463.5,1160.2 466.5,1159.2 473.4,1158.2 475.4" style="fill:none;stroke:#5784ff;stroke-width:2"/>
<polyline points="1119.8 505.9,1116.8 509.9,1115.8 513.8,1113.9 516.8,1112.9 519.7,1115.8 518.7,1117.8 517.7,1120.8 514.8,1123.7 512.8,1125.7 510.8,1135.5 503.0,1133.6 507.9,1132.6 509.9,1130.6 516.8,1132.6 515.8,1135.5 513.8,1139.5 509.9,1141.4 508.9,1142.4 506.9,1146.4 503.9,1149.3 502.0,1149.3 505.9,1148.3 511.8,1147.4 516.8,1148.3 519.7,1148.3 521.7" style="fill:none;stroke:#5784ff;stroke-width:2"/>
<polyline points="1198.6 507.9,1196.6 509.9,1195.6 511.8,1197.6 513.8,1202.5 509.9,1206.5 506.9,1208.5 505.9,1210.4 508.9,1209.4 510.8,1208.5 514.8,1210.4 516.8,1214.4 513.8,1216.3 512.8,1217.3 510.8,1219.3 509.9,1223.2 508.9,1224.2 512.8,1224.2 515.8,1223.2 519.7,1223.2 523.7" style="fill:none;stroke:#5784ff;stroke-width:2"/>
<polyline points="1213.4 553.2,1210.4 557.2,1208.5 560.1,1206.5 562.1,1202.5 567.0,1200.6 570.0,1199.6 571.9,1202.5 571.9,1205.5 570.0,1210.4 566.0,1212.4 565.0,1215.3 562.1,1216.3 567.0,1214.4 572.9,1213.4 574.9,1211.4 579.8,1212.4 582.8,1214.4 581.8,1216.3 580.8" style="fill:none;stroke:#5784ff;stroke-width:2"/>
<polyline points="1273.5 560.1,1275.5 559.1,1278.4 558.1,1278.4 561.1,1277.4 566.0,1276.4 568.0,1275.5 571.0,1274.5 572.9,1270.5 579.8,1271.5 582.8,1273.5 581.8,1276.4 579.8,1281.4 575.9,1285.3 573.9,1286.3 576.9,1285.3 579.8,1284.3 581.8,1284.3 584.8,1286.3 586.7,1289.3 587.7,1290.2 589.7,1290.2 592.6,1290.2 594.6" style="fill:none;stroke:#5784ff;stroke-width:2"/>
<polyline points="1111.9 550.3,1110.9 554.2,1109.9 556.2,1107.9 562.1,1108.9 564.1,1112.9 562.1,1119.8 557.2,1121.7 555.2,1124.7 553.2,1129.6 549.3,1131.6 548.3,1133.6 546.3,1136.5 544.3,1138.5 546.3,1137.5 548.3,1136.5 551.2,1133.6 557.2,1130.6 564.1,1126.7 570.0,1125.7 572.9,1124.7 574.9,1123.7 577.9,1125.7 579.8,1128.6 577.9,1133.6 573.9,1135.5 571.0,1138.5 569.0,1143.4 564.1,1146.4 562.1,1150.3 559.1,1152.3 558.1,1154.3 561.1,1153.3 564.1,1147.4 577.9,1146.4 580.8,1144.4 584.8,1143.4 589.7,1142.4 593.6,1146.4 592.6,1147.4 590.7,1151.3 586.7,1156.2 580.8,1159.2 577.9,1161.2 580.8,1161.2 585.7,1161.2 589.7" style="fill:none;stroke:#5784ff;stroke-width:2"/>
<polyline points="1321.8 614.3,1319.8 615.3,1316.8 619.2,1315.9 622.2,1319.8 623.2,1321.8 622.2,1324.7 619.2,1330.6 614.3,1332.6 612.3,1335.6 610.4,1337.5 609.4,1337.5 613.3,1335.6 619.2,1334.6 621.2,1332.6 626.1,1331.6 628.1,1330.6 631.1,1331.6 633.0,1334.6 632.0,1339.5 628.1,1341.5 626.1,1346.4 622.2,1349.4 620.2,1353.3 617.3,1355.3 616.3,1356.3 618.3,1355.3 620.2,1353.3 625.2,1352.3 627.1,1349.4 632.0,1348.4 634.0,1347.4 638.9,1349.4 638.0,1354.3 633.0,1357.2 631.1,1362.2 627.1,1364.1 626.1,1366.1 624.2,1369.1 623.2,1371.0 625.2,1370.1 628.1,1369.1 630.1,1365.1 638.0" style="fill:none;stroke:#5784ff;stroke-width:2"/>
<polyline points="1039.9 447.8,1041.9 445.8,1044.9 443.8,1045.9 441.9,1049.8 439.9,1052.8 437.9,1054.7 436.9,1055.7 439.9,1054.7 441.9,1052.8 447.8,1046.8 461.6,1044.9 467.5,1045.9 470.4,1051.8 469.5,1053.7 468.5,1055.7 466.5,1061.6 462.6,1071.5 454.7,1073.5 453.7,1076.4 451.7,1075.4 456.6,1074.4 458.6,1072.5 460.6,1069.5 465.5,1068.5 467.5,1066.6 470.4,1070.5 469.5,1075.4 466.5,1077.4 463.5,1080.3 461.6,1088.2 455.7,1090.2 453.7,1093.2 451.7,1093.2 456.6,1092.2 458.6,1090.2 463.5,1088.2 466.5,1087.2 468.5,1084.3 472.4,1082.3 474.4,1081.3 476.4,1083.3 476.4" style="fill:none;stroke:#ff5959;stroke-width:2"/>
<polyline points="1047.8 506.9,1046.8 508.9,1044.9 510.8,1048.8 509.9,1051.8 507.9,1054.7 504.9,1056.7 503.9,1058.7 502.0,1061.6 501.0,1060.6 503.0,1059.7 505.9,1057.7 510.8,1056.7 512.8,1053.7 517.7,1051.8 519.7,1057.7 516.8,1061.6 513.8,1063.6 511.8,1066.6 510.8,1070.5 507.9,1074.4 505.9,1075.4 507.9,1075.4 511.8,1074.4 514.8,1072.5 519.7,1071.5 521.7,1068.5 525.6,1071.5 523.7,1072.5 521.7,1074.4 519.7,1083.3 511.8,1084.3 513.8,1084.3 516.8,1083.3 521.7,1082.3 524.6,1083.3 526.6" style="fill:none;stroke:#ff5959;stroke-width:2"/>
<polyline points="1057.7 565.0,1058.7 562.1,1057.7 568.0,1056.7 571.0,1057.7 573.9,1060.6 571.9,1064.6 568.0,1066.6 567.0,1069.5 565.0,1073.5 565.0,1072.5 568.0,1070.5 572.9,1069.5 577.9,1071.5 576.9,1075.4 571.9,1077.4 570.0,1083.3 565.0,1082.3 571.0,1081.3 572.9,1079.4 579.8,1080.3 581.8,1082.3 581.8" style="fill:none;stroke:#ff5959;stroke-width:2"/>
<polyline points="1062.6 621.2,1063.6 617.3,1064.6 615.3,1068.5 612.3,1070.5 610.4,1070.5 614.3,1068.5 619.2,1067.5 621.2,1065.6 626.1,1064.6 629.1,1068.5 628.1,1071.5 625.2,1083.3 615.3,1085.3 613.3,1086.3 616.3,1085.3 618.3,1084.3 622.2,1083.3 625.2,1081.3 629.1,1079.4 632.0,1078.4 634.0,1080.3 633.0,1083.3 631.1,1085.3 629.1,1086.3 627.1,1090.2 624.2,1093.2 622.2,1096.1 623.2,1095.1 627.1,1094.1 633.0,1093.2 636.0,1094.1 639.9" style="fill:none;stroke:#ff5959;stroke-width:2"/>
<polyline points="1267.6 620.2,1265.6 621.2,1262.6 623.2,1259.7 626.1,1257.7 629.1,1262.6 628.1,1265.6 625.2,1267.6 624.2,1270.5 621.2,1272.5 620.2,1274.5 618.3,1275.5 620.2,1274.5 623.2,1272.5 628.1,1271.5 630.1,1270.5 633.0,1268.6 637.0,1266.6 642.9,1269.5 641.9,1274.5 638.9,1276.4 637.0,1279.4 636.0,1283.3 633.0,1285.3 632.0,1288.3 631.1,1291.2 635.0,1290.2 638.0,1289.3 642.9,1288.3 644.9,1288.3 647.8,1292.2 647.8,1294.2 647.8" style="fill:none;stroke:#ff5959;stroke-width:2"/>
<polyline points="1048.8 742.4,1046.8 739.5,1045.9 736.5,1045.9 732.6,1046.8 722.7,1048.8 718.8,1050.8 715.8,1054.7 711.9" style="fill:none;stroke:#000000;stroke-width:2"/>
<polyline points="1040.9 732.6,1042.9 730.6,1047.8 728.6,1050.8 727.6,1053.7 727.6,1056.7 728.6,1060.6 731.6,1061.6 733.5" style="fill:none;stroke:#000000;stroke-width:2"/>
<polyline points="1068.5 736.5,1068.5 739.5,1067.5 741.4,1067.5 745.4" style="fill:none;stroke:#000000;stroke-width:2"/>
<polyline points="1070.5 719.8,1069.5 720.7" style="fill:none;stroke:#000000;stroke-width:2"/>
<polyline points="1078.4 731.6,1080.3 733.5,1082.3 734.5,1084.3 736.5,1088.2 739.5,1091.2 741.4,1093.2 743.4,1094.1 744.4" style="fill:none;stroke:#000000;stroke-width:2"/>
<polyline points="1092.2 726.6,1090.2 728.6,1089.2 730.6,1086.3 734.5,1085.3 736.5,1083.3 739.5,1081.3 743.4" style="fill:none;stroke:#000000;stroke-width:2"/>
<polyline points="1097.1 741.4,1098.1 739.5,1100.1 737.5,1104.0 735.5,1105.0 733.5,1107.9 731.6,1108.9 728.6,1105.0 728.6,1103.0 729.6,1102.0 731.6,1100.1 734.5,1099.1 737.5,1100.1 740.4,1101.0 742.4,1103.0 743.4,1107.9 744.4,1111.9 744.4,1114.8 743.4" style="fill:none;stroke:#000000;stroke-width:2"/>
<polyline points="1129.6 735.5,1128.6 732.6,1124.7 733.5,1121.7 735.5,1120.8 738.5,1119.8 743.4,1120.8 746.4,1123.7 747.3,1125.7 746.4,1126.7 744.4,1130.6 741.4,1131.6 739.5,1133.6 736.5,1136.5 731.6,1137.5 729.6,1139.5 727.6,1140.5 722.7,1141.4 720.7,1141.4 715.8,1140.5 710.9,1140.5 715.8,1141.4 730.6,1142.4 734.5,1144.4 740.4,1145.4 741.4" style="fill:none;stroke:#000000;stroke-width:2"/>
<polyline points="242.8 819.3,242.8 823.2,241.8 833.1,241.8 836.0,242.8 837.0" style="fill:none;stroke:#000000;stroke-width:2"/>
<polyline points="259.5 814.3,258.5 817.3,257.5 824.2,256.6 826.2,256.6 830.1,255.6 833.1,255.6 838.0" style="fill:none;stroke:#000000;stroke-width:2"/>
<polyline points="413.2 756.2,413.2 761.1,412.2 766.1,411.3 773.0,412.2 773.9" style="fill:none;stroke:#000000;stroke-width:2"/>
<polyline points="422.1 755.2,421.1 758.2,420.1 764.1,419.1 768.0,419.1 772.0,420.1 775.9" style="fill:none;stroke:#000000;stroke-width:2"/>
<polyline points="1010.4 750.3,1009.4 755.2,1008.4 762.1,1007.4 764.1,1007.4 767.1,1006.4 771.0" style="fill:none;stroke:#000000;stroke-width:2"/>
<polyline points="1016.3 751.3,1015.3 754.2,1013.3 761.1,1013.3 764.1,1013.3 766.1" style="fill:none;stroke:#000000;stroke-width:2"/>
<polyline points="1161.2 698.1,1160.2 702.0,1158.2 711.9" style="fill:none;stroke:#000000;stroke-width:2"/>
<polyline points="1169.0 698.1,1168.0 702.0,1166.1 708.9,1165.1 712.9,1165.1 717.8,1165.1 720.7" style="fill:none;stroke:#000000;stroke-width:2"/>
<polyline points="1295.2 560.1,1297.1 558.1,1299.1 557.2,1306.0 554.2,1309.0 553.2,1315.9 551.2,1319.8 550.3,1332.6 547.3,1337.5 546.3,1352.3 544.3,1357.2 543.4,1363.2 543.4,1372.0 542.4,1377.0 542.4,1384.8 541.4,1387.8 541.4,1398.6 541.4" style="fill:none;stroke:#5784ff;stroke-width:2"/>
<polyline points="1396.7 537.5,1399.6 538.4,1403.6 538.4,1406.5 539.4,1405.5 542.4,1403.6 543.4,1400.6 546.3,1398.6 548.3" style="fill:none;stroke:#5784ff;stroke-width:2"/>
<polyline points="1443.0 533.5,1443.0 537.5,1444.0 541.4,1444.0 546.3,1443.0 551.2,1442.0 554.2,1441.0 556.2,1439.0 559.1,1436.1 560.1,1434.1 559.1,1433.1 556.2" style="fill:none;stroke:#5784ff;stroke-width:2"/>
<polyline points="1472.5 512.8,1471.6 516.8,1471.6 520.7,1470.6 526.6,1470.6 529.6,1471.6 538.4,1471.6 541.4,1472.5 551.2,1470.6 548.3,1469.6 545.3,1468.6 541.4,1467.6 538.4,1466.6 536.5,1465.6 533.5,1467.6 536.5,1469.6 537.5,1474.5 538.4,1478.5 538.4,1484.4 537.5,1487.3 535.5,1483.4 536.5,1483.4 539.4,1484.4 542.4,1486.3 546.3,1489.3 548.3,1492.2 547.3,1493.2 544.3,1491.3 541.4,1488.3 537.5,1488.3 538.4" style="fill:none;stroke:#5784ff;stroke-width:2"/>
<polyline points="1504.1 516.8,1503.1 519.7,1502.1 527.6,1501.1 529.6,1501.1 533.5,1500.1 535.5,1500.1 538.4,1501.1 542.4,1503.1 541.4,1506.0 540.4,1505.1 543.4,1503.1 545.3,1505.1 548.3,1509.0 547.3,1511.0 547.3" style="fill:none;stroke:#5784ff;stroke-width:2"/>
<polyline points="1517.9 546.3,1518.9 543.4,1519.8 539.4,1520.8 536.5,1519.8 534.5,1516.9 535.5,1514.9 538.4,1513.9 541.4,1513.9 545.3,1514.9 548.3,1515.9 550.3,1517.9 551.2" style="fill:none;stroke:#5784ff;stroke-width:2"/>
<polyline points="1526.7 538.4,1526.7 542.4,1527.7 549.3,1529.7 548.3,1531.7 546.3,1533.6 545.3,1534.6 548.3,1536.6 550.3" style="fill:none;stroke:#5784ff;stroke-width:2"/>
<polyline points="1544.5 541.4,1543.5 539.4,1540.5 538.4,1541.5 543.4,1543.5 545.3,1548.4 552.2,1545.5 553.2,1540.5 553.2" style="fill:none;stroke:#5784ff;stroke-width:2"/>
<polyline points="1100.1 434.0,1100.1 430.0,1101.0 427.1,1103.0 423.1,1107.9 414.3,1109.9 412.3,1110.9 410.3,1113.9 408.4,1115.8 407.4,1119.8 406.4,1123.7 406.4,1128.6 407.4,1132.6 407.4,1135.5 408.4,1139.5 410.3,1142.4 411.3,1145.4 413.3,1147.4 414.3,1151.3 415.3,1153.3 417.2,1155.2 418.2,1158.2 419.2,1163.1 420.2,1165.1 421.2,1169.0 421.2,1185.8 420.2,1188.7 419.2,1190.7 418.2,1193.7 416.2,1196.6 413.3,1198.6 410.3,1200.6 405.4,1201.6 402.5,1202.5 407.4,1204.5 410.3,1205.5 412.3,1207.5 413.3,1209.4 415.3,1211.4 416.2,1214.4 417.2,1218.3 418.2,1223.2 418.2,1230.1 417.2,1234.1 417.2,1237.0 416.2,1242.0 415.3,1244.9 414.3,1248.9 413.3,1251.8 412.3,1254.8 412.3,1258.7 411.3,1260.7 410.3,1263.6 410.3,1268.6 409.3,1273.5 409.3,1285.3 410.3,1287.3 412.3,1289.3 415.3,1290.2 418.2,1291.2 423.1,1292.2 426.1,1293.2 427.1" style="fill:none;stroke:#5784ff;stroke-width:2"/>
<polyline points="1201.6 384.7,1203.5 382.7,1207.5 377.8,1208.5 375.8,1206.5 373.9,1204.5 374.9,1202.5 377.8,1201.6 380.8,1200.6 385.7,1199.6 388.7,1199.6 393.6,1201.6 396.5,1203.5 398.5,1205.5 399.5,1209.4 399.5,1211.4 399.5" style="fill:none;stroke:#5784ff;stroke-width:2"/>
<polyline points="1199.6 616.3,1196.6 615.3,1195.6 618.3,1193.7 620.2,1192.7 622.2,1194.7 621.2,1199.6 618.3,1202.5 615.3,1204.5 614.3,1202.5 617.3,1200.6 621.2,1198.6 623.2,1196.6 627.1,1194.7 629.1,1193.7 633.0,1192.7 636.0,1199.6 634.0,1200.6 632.0,1205.5 629.1,1206.5 627.1,1210.4 625.2,1212.4 623.2,1212.4 626.1,1210.4 630.1,1208.5 632.0,1206.5 636.0,1205.5 638.9,1206.5 642.9,1211.4 640.9,1213.4 639.9,1217.3 637.0,1219.3 636.0,1224.2 633.0,1226.2 635.0,1225.2 637.0,1224.2 642.9,1223.2 646.8,1223.2 650.8,1224.2 651.8" style="fill:none;stroke:#ff5959;stroke-width:2"/>
<polyline points="976.9 437.9,972.9 439.9,970.0 443.8,968.0 446.8,972.9 445.8,975.9 443.8,979.8 440.9,981.8 438.9,985.7 436.9,987.7 435.0,991.7 433.0,990.7 438.9,989.7 441.9,985.7 450.7,983.8 452.7,981.8 456.6,980.8 459.6,984.8 459.6,987.7 456.6,990.7 454.7,994.6 451.7,996.6 449.7,1002.5 444.8,1005.5 442.9,1005.5 445.8,1004.5 447.8,1002.5 452.7,1000.5 454.7,999.5 457.6,997.6 461.6,996.6 464.5,996.6 466.5" style="fill:none;stroke:#ff5959;stroke-width:2"/>
<polyline points="973.9 501.0,973.9 505.9,972.0 509.9,971.0 514.8,970.0 517.7,972.0 519.7,975.9 516.8,978.9 513.8,985.7 505.9,988.7 503.9,987.7 506.9,986.7 508.9,985.7 511.8,982.8 515.8,981.8 517.7,979.8 520.7,978.9 523.7,980.8 522.7,985.7 518.7,988.7 516.8,993.6 511.8,996.6 509.9,1001.5 505.9,1003.5 503.9,1006.4 503.0,1007.4 504.9,1006.4 508.9,1003.5 513.8,1002.5 516.8,1000.5 518.7,998.6 521.7,997.6 524.6,998.6 526.6,1001.5 527.6" style="fill:none;stroke:#ff5959;stroke-width:2"/>
<polyline points="985.7 563.1,984.8 565.0,982.8 571.0,981.8 576.9,980.8 578.8,984.8 576.9,990.7 571.9,992.6 570.0,996.6 567.0,997.6 565.0,1000.5 564.1,999.5 568.0,997.6 572.9,996.6 575.9,993.6 581.8,990.7 586.7,991.7 589.7,995.6 586.7,997.6 584.8,1000.5 582.8,1002.5 580.8,1010.4 573.9,1014.3 570.0,1017.3 568.0,1017.3 571.0,1016.3 573.9,1015.3 575.9,1013.3 580.8,1012.4 584.8,1012.4 587.7,1013.3 588.7" style="fill:none;stroke:#ff5959;stroke-width:2"/>
<polyline points="990.7 607.4,989.7 611.4,988.7 613.3,986.7 619.2,988.7 621.2,993.6 619.2,995.6 618.3,1000.5 616.3,1002.5 615.3,1006.4 615.3,1007.4 617.3,1007.4 622.2,1009.4 633.0,1013.3 631.1,1018.3 627.1,1020.2 625.2,1024.2 623.2,1027.1 621.2,1030.1 620.2,1032.1 622.2,1033.0 629.1,1033.0 635.0,1035.0 638.9,1037.0 640.9,1039.0 640.9" style="fill:none;stroke:#ff5959;stroke-width:2"/>
<polyline points="1180.9 660.6,1180.9 664.6,1181.8 668.5,1182.8 671.5,1184.8 675.4,1186.8 677.4,1190.7 680.3,1193.7 681.3,1199.6 682.3,1203.5 681.3,1209.4 680.3,1212.4 678.4,1214.4 677.4,1222.2 674.4,1224.2 673.4,1228.2 672.5,1231.1 671.5,1235.1 671.5,1242.9 672.5,1244.9 673.4,1246.9 675.4,1246.9 679.3,1248.9 677.4,1251.8 676.4,1255.8 676.4,1259.7 677.4,1262.6 678.4,1267.6 680.3,1273.5 681.3,1276.4 681.3,1286.3 680.3,1290.2 680.3,1296.2 679.3,1298.1 678.4,1301.1 676.4,1303.0 674.4,1304.0 672.5,1305.0 669.5" style="fill:none;stroke:#ff5959;stroke-width:2"/>
<polyline points="1245.9 705.0,1242.9 706.0,1241.0 707.9,1237.0 712.9,1236.0 714.8,1237.0 717.8,1240.0 720.7,1242.9 721.7,1246.9 721.7,1251.8 720.7,1254.8 719.8,1255.8 718.8" style="fill:none;stroke:#ff5959;stroke-width:2"/>
<polyline points="1265.6 714.8,1269.5 714.8,1274.5 714.8" style="fill:none;stroke:#ff5959;stroke-width:2"/>
<polyline points="1265.6 720.7,1268.6 719.8,1274.5 718.8,1276.4 718.8" style="fill:none;stroke:#ff5959;stroke-width:2"/>
<polyline points="1287.3 710.9,1289.3 708.9,1293.2 708.9,1296.2 709.9,1295.2 712.9,1293.2 714.8,1291.2 717.8,1290.2 719.8,1289.3 722.7,1291.2 724.7,1294.2 724.7,1303.0 724.7" style="fill:none;stroke:#ff5959;stroke-width:2"/>
<polyline points="1212.2 386.3,1215.5 386.3,1221.9 386.6" style="fill:none;stroke:#5784ff;stroke-width:2"/>
<polyline points="1211.1 390.7,1214.1 391.1,1216.7 391.1,1220.7 391.5,1221.5 391.5" style="fill:none;stroke:#5784ff;stroke-width:2"/>
<polyline points="1227.8 380.7,1230.8 380.0,1231.9 381.8,1230.8 383.7,1231.5 385.9,1234.1 387.0,1235.2 389.6,1233.7 391.8,1231.9 393.3,1228.9 395.6,1227.1 394.8" style="fill:none;stroke:#5784ff;stroke-width:2"/>
<polyline points="862.8 669.1,862.8 671.5,861.3 675.4,860.5 677.8,859.7 680.9,858.9 683.3,861.3 684.9,864.4 684.1,866.8 683.3,868.3 686.4,866.8 688.0,864.4 691.1,862.0 692.7,864.4 692.7,867.5 693.5,869.9 694.3,872.3 694.3,876.2 695.1,878.6 695.1,880.1 695.1" style="fill:none;stroke:#ff5959;stroke-width:2"/>
<polyline points="902.2 669.9,900.6 672.3,900.6 676.2,901.4 686.4,901.4 688.8,903.0 691.1" style="fill:none;stroke:#ff5959;stroke-width:2"/>
<polyline points="897.4 684.1,900.6 684.1,906.9 684.9,909.2 684.9,911.6 684.1,909.2 684.1,910.0 687.2,911.6 688.8,914.8 689.6,917.1 688.8,918.7 686.4,918.7 683.3,916.3 681.7,914.0 680.9,912.4 682.5" style="fill:none;stroke:#ff5959;stroke-width:2"/>
<polyline points="925.8 666.0,925.0 668.3,924.2 672.3,924.2 674.6,923.4 679.3,923.4 683.3,924.2 685.6,926.6 686.4,929.7 686.4,928.1 688.8,928.9 691.1,931.3 691.9,934.4 691.1,937.6 691.1,939.1 688.8,938.4 684.9,937.6 682.5,936.0 685.6,936.8 688.8,938.4 690.4,940.7 691.9,942.3 691.1" style="fill:none;stroke:#ff5959;stroke-width:2"/>
<polyline points="946.2 682.5,946.2 686.4,947.8 688.8,950.2 689.6,953.3 688.0,954.1 690.4,955.7 693.5,956.4 692.7" style="fill:none;stroke:#ff5959;stroke-width:2"/>
<polyline points="963.5 683.3,965.9 684.9,969.0 685.6,971.4 687.2,969.8 689.6,967.5 691.1,964.3 693.5,962.7 695.1" style="fill:none;stroke:#ff5959;stroke-width:2"/>
<polyline points="992.6 629.0,991.1 633.7,990.3 636.9,988.7 642.4,986.3 648.7,985.6 651.0,981.6 657.3,979.3 661.3,976.9 663.6,973.0 666.0,973.0 663.6" style="fill:none;stroke:#ff5959;stroke-width:2"/>
<polyline points="975.3 659.7,973.8 661.3,970.6 663.6,969.0 666.0,968.2 668.3,969.8 669.9,973.0 670.7,977.7 670.7,982.4 669.9,986.3 668.3,989.5 668.3" style="fill:none;stroke:#ff5959;stroke-width:2"/>
<polyline points="1444.2 518.9,1441.8 519.6,1441.8 522.0,1443.4 520.4" style="fill:none;stroke:#5784ff;stroke-width:2"/>
<polyline points="892.2 608.2,892.2 605.8,891.0 597.3,891.0 594.9,889.7 581.6,889.7 578.0,888.5 573.1,888.5 570.7,887.3 567.1,887.3 564.7,886.1 561.0,886.1 558.6,884.9 553.8,883.7 550.2,882.5 542.9,881.3 538.1,881.3 535.6,880.1 529.6,880.1 527.2,881.3 473.9,881.3 469.1,882.5 463.0,882.5 460.6,883.7 453.4,883.7 448.5,884.9 407.4,884.9 403.7,883.7 392.9,883.7 389.2,882.5 375.9,882.5 372.3,881.3 339.6,881.3 336.0,880.1 311.8,880.1 309.4,878.9 300.9,878.9 298.5,877.6 296.1,877.6 292.4,876.4 288.8,876.4 286.4,875.2 284.0,875.2 281.5,874.0 271.9,874.0 269.4,872.8 265.8,871.6 263.4,871.6 261.0,870.4 242.8,870.4 240.4,869.2 235.6,869.2 233.1,868.0 228.3,868.0 225.9,868.0 198.0" style="fill:none;stroke:#000000;stroke-width:2"/>
<polyline points="869.2 193.2,871.6 193.2,875.2 194.4,880.1 196.8,882.5 196.8,886.1 198.0,892.2 200.5,894.6 200.5,897.0 201.7,900.6 201.7,903.1 202.9,907.9 202.9,917.6 204.1,920.0 204.1,924.8 205.3,928.5 205.3,932.1 206.5,935.7 206.5,968.4 207.7,970.8 207.7,974.4 208.9,979.3 208.9,1010.7 207.7,1013.2 207.7,1025.3 206.5,1027.7 206.5,1078.5 207.7,1080.9 207.7,1094.2 208.9,1097.9 208.9,1101.5 210.1,1106.3 210.1,1110.0 211.4,1113.6 211.4,1118.4 212.6,1122.1 212.6,1128.1 213.8,1130.5 213.8,1136.6 215.0,1141.4 215.0,1148.7 216.2,1153.5 216.2,1256.4 216.2,1264.8 215.0,1267.3 215.0,1279.4 213.8,1284.2 213.8,1297.5 212.6,1301.1 212.6,1360.4 211.4,1362.9 211.4,1391.9 212.6,1393.1 211.4" style="fill:none;stroke:#000000;stroke-width:2"/>
<polyline points="1376.2 213.8,1376.2 216.2,1375.0 219.8,1373.7 224.7,1373.7 229.5,1372.5 231.9,1372.5 235.6,1373.7 254.9,1373.7 257.3,1375.0 304.5,1375.0 310.6,1376.2 332.4,1376.2 336.0,1377.4 348.1,1377.4 350.5,1378.6 352.9,1379.8 359.0,1379.8 362.6,1381.0 366.2,1381.0 368.7,1382.2 385.6,1382.2 389.2,1381.0 405.0,1381.0 409.8,1379.8 430.4,1379.8 435.2,1378.6 442.5,1378.6 444.9,1377.4 467.9,1377.4 470.3,1378.6 536.8,1378.6 539.3,1379.8 556.2,1379.8 558.6,1381.0 575.6,1381.0 578.0,1382.2 592.5,1382.2 594.9,1383.4 601.0,1383.4 603.4,1383.4 613.1" style="fill:none;stroke:#000000;stroke-width:2"/>
<polyline points="840.1 521.1,836.5 522.3,836.5 524.7,838.9 527.2,842.6 528.4,845.0 528.4,852.2 527.2,854.7 523.5,855.9 521.1,855.9 516.3,854.7 513.9,853.4 510.2,849.8 503.0,847.4 500.5,845.0 499.3,841.3 499.3,834.1 500.5,831.7 503.0,828.0 507.8,828.0 511.4,829.2 513.9,834.1 521.1,836.5 523.5,838.9 524.7,841.3 524.7,848.6 523.5,849.8 522.3" style="fill:none;stroke:#000000;stroke-width:2"/>
<polyline points="832.9 487.2,835.3 489.7,837.7 489.7,840.1 490.9,845.0 490.9,847.4 489.7,851.0 486.0,852.2 483.6,851.0 481.2,848.6 477.6,847.4 475.1,845.0 473.9,841.3 471.5,836.5 469.1,832.9 466.7,830.5 466.7,830.5 469.1,834.1 470.3,841.3 471.5,843.8 471.5,847.4 470.3,849.8 469.1,853.4 466.7,853.4 464.2" style="fill:none;stroke:#000000;stroke-width:2"/>
<polyline points="806.3 446.1,809.9 448.5,812.3 448.5,818.4 450.9,820.8 452.1,823.2 452.1,828.0 453.4,831.7 453.4,846.2 452.1,848.6 452.1,845.0 450.9,842.6 449.7" style="fill:none;stroke:#000000;stroke-width:2"/>
<polyline points="828.0 458.2,828.0 454.6,828.0 435.2" style="fill:none;stroke:#000000;stroke-width:2"/>
<polyline points="825.6 426.7,828.0 426.7,831.7 427.9,835.3 427.9,838.9 429.2,845.0 429.2,848.6 430.4,853.4 430.4,857.1 429.2,854.7 429.2,845.0 427.9,842.6 426.7,837.7 426.7,835.3 425.5,830.5 424.3,828.0 424.3,828.0 421.9,829.2 419.5,832.9 417.1,836.5 415.8,837.7 419.5,835.3 421.9,831.7 423.1" style="fill:none;stroke:#000000;stroke-width:2"/>
<polyline points="826.8 405.0,830.5 406.2,832.9 406.2,835.3 405.0,838.9 403.7,841.3 401.3,841.3 397.7,840.1 394.1,837.7 391.6,834.1 389.2,831.7 386.8,829.2 386.8,826.8 389.2" style="fill:none;stroke:#000000;stroke-width:2"/>
<polyline points="803.8 365.0,806.3 366.2,812.3 368.7,814.7 368.7,819.6 371.1,822.0 371.1,825.6 372.3,830.5 372.3,841.3 371.1,843.8 371.1,843.8 368.7,840.1 366.2,836.5 365.0,834.1 365.0" style="fill:none;stroke:#000000;stroke-width:2"/>
<polyline points="824.4 378.3,824.4 373.5,825.6 368.7" style="fill:none;stroke:#000000;stroke-width:2"/>
<polyline points="822.0 348.1,822.0 350.5,824.4 350.5,835.3 349.3,838.9 348.1,841.3 348.1,840.1 350.5,837.7 352.9,835.3 355.3" style="fill:none;stroke:#000000;stroke-width:2"/>
</svg>